G04 EAGLE Gerber X2 export*
%TF.Part,Single*%
%TF.FileFunction,Copper,L2,Bot,Mixed*%
%TF.FilePolarity,Positive*%
%TF.GenerationSoftware,Autodesk,EAGLE,9.1.3*%
%TF.CreationDate,2018-09-07T19:45:19Z*%
G75*
%MOMM*%
%FSLAX34Y34*%
%LPD*%
%AMOC8*
5,1,8,0,0,1.08239X$1,22.5*%
G01*
%ADD10C,1.524000*%
%ADD11P,1.732040X8X22.500000*%
%ADD12C,1.676400*%
%ADD13C,1.676400*%
%ADD14P,1.429621X8X22.500000*%
%ADD15P,1.814519X8X22.500000*%
%ADD16R,1.676400X1.676400*%
%ADD17C,0.152400*%


D10*
X472440Y45720D02*
X472440Y30480D01*
X447040Y30480D02*
X447040Y45720D01*
X421640Y45720D02*
X421640Y30480D01*
X396240Y30480D02*
X396240Y45720D01*
X370840Y45720D02*
X370840Y30480D01*
X345440Y30480D02*
X345440Y45720D01*
X320040Y45720D02*
X320040Y30480D01*
X294640Y30480D02*
X294640Y45720D01*
X254000Y45720D02*
X254000Y30480D01*
X228600Y30480D02*
X228600Y45720D01*
X203200Y45720D02*
X203200Y30480D01*
X177800Y30480D02*
X177800Y45720D01*
X152400Y45720D02*
X152400Y30480D01*
X127000Y30480D02*
X127000Y45720D01*
X101600Y45720D02*
X101600Y30480D01*
X76200Y30480D02*
X76200Y45720D01*
X381000Y513080D02*
X381000Y528320D01*
X355600Y528320D02*
X355600Y513080D01*
X330200Y513080D02*
X330200Y528320D01*
X304800Y528320D02*
X304800Y513080D01*
X279400Y513080D02*
X279400Y528320D01*
X254000Y528320D02*
X254000Y513080D01*
X203200Y513080D02*
X203200Y528320D01*
X177800Y528320D02*
X177800Y513080D01*
X152400Y513080D02*
X152400Y528320D01*
X127000Y528320D02*
X127000Y513080D01*
X101600Y513080D02*
X101600Y528320D01*
X76200Y528320D02*
X76200Y513080D01*
X292100Y363220D02*
X292100Y347980D01*
X317500Y347980D02*
X317500Y363220D01*
X342900Y363220D02*
X342900Y347980D01*
X368300Y347980D02*
X368300Y363220D01*
X76200Y398780D02*
X76200Y414020D01*
X101600Y414020D02*
X101600Y398780D01*
X127000Y398780D02*
X127000Y414020D01*
X152400Y414020D02*
X152400Y398780D01*
X76200Y337820D02*
X76200Y322580D01*
X101600Y322580D02*
X101600Y337820D01*
X127000Y337820D02*
X127000Y322580D01*
X152400Y322580D02*
X152400Y337820D01*
D11*
X457200Y241300D03*
X254000Y406400D03*
D10*
X50800Y261620D02*
X50800Y246380D01*
X76200Y246380D02*
X76200Y261620D01*
X101600Y261620D02*
X101600Y246380D01*
X127000Y109220D02*
X127000Y93980D01*
X152400Y93980D02*
X152400Y109220D01*
X177800Y109220D02*
X177800Y93980D01*
X203200Y93980D02*
X203200Y109220D01*
X292100Y246380D02*
X292100Y261620D01*
X317500Y261620D02*
X317500Y246380D01*
D12*
X457200Y334518D02*
X457200Y351282D01*
X495300Y351282D02*
X495300Y334518D01*
X533400Y334518D02*
X533400Y351282D01*
X457200Y423418D02*
X457200Y440182D01*
X495300Y440182D02*
X495300Y423418D01*
X533400Y423418D02*
X533400Y440182D01*
D13*
X254000Y266700D03*
X254000Y368300D03*
X177800Y215900D03*
X279400Y215900D03*
D14*
X368300Y165100D03*
X419100Y165100D03*
X482600Y165100D03*
X533400Y165100D03*
X368300Y114300D03*
X419100Y114300D03*
D15*
X495300Y101600D03*
D16*
X520700Y101600D03*
D15*
X571500Y101600D03*
D16*
X596900Y101600D03*
D15*
X635000Y63500D03*
D16*
X660400Y63500D03*
D11*
X558800Y203200D03*
X609600Y203200D03*
X609600Y292100D03*
X558800Y292100D03*
D10*
X652780Y508000D02*
X668020Y508000D01*
X668020Y482600D02*
X652780Y482600D01*
X652780Y457200D02*
X668020Y457200D01*
X668020Y406400D02*
X652780Y406400D01*
X652780Y381000D02*
X668020Y381000D01*
X668020Y355600D02*
X652780Y355600D01*
X652780Y304800D02*
X668020Y304800D01*
X668020Y279400D02*
X652780Y279400D01*
X652780Y254000D02*
X668020Y254000D01*
X668020Y203200D02*
X652780Y203200D01*
X652780Y177800D02*
X668020Y177800D01*
X668020Y152400D02*
X652780Y152400D01*
D17*
X317500Y355600D02*
X316992Y356616D01*
X381000Y469392D02*
X330708Y519684D01*
X330200Y520700D01*
X79248Y38100D02*
X76200Y38100D01*
X79248Y38100D02*
X97536Y19812D01*
X181356Y19812D01*
X192024Y30480D01*
X192024Y48768D01*
X373380Y230124D01*
X385572Y230124D01*
X446532Y291084D01*
X446532Y420624D01*
X457200Y431292D01*
X457200Y431800D01*
X292100Y355600D02*
X291084Y355092D01*
X367284Y164592D02*
X367284Y163576D01*
X254000Y50292D01*
X367284Y164592D02*
X368300Y165100D01*
X254000Y50292D02*
X254000Y38100D01*
X419100Y164592D02*
X428244Y164592D01*
X490728Y102108D01*
X495300Y102108D01*
X419100Y164592D02*
X419100Y165100D01*
X495300Y102108D02*
X495300Y101600D01*
X453644Y114300D02*
X419100Y114300D01*
X453644Y114300D02*
X502412Y65532D01*
X632460Y65532D01*
X633984Y64008D01*
X635000Y63500D01*
X367284Y85344D02*
X367284Y114300D01*
X367284Y85344D02*
X320040Y38100D01*
X367284Y114300D02*
X368300Y114300D01*
X456692Y166116D02*
X481584Y166116D01*
X456692Y166116D02*
X425450Y197358D01*
X295656Y67564D01*
X295656Y38100D01*
X481584Y166116D02*
X482600Y165100D01*
X295656Y38100D02*
X294640Y38100D01*
X659892Y406908D02*
X659892Y435864D01*
X641604Y454152D01*
X641604Y489204D01*
X660400Y508000D01*
X659892Y406908D02*
X660400Y406400D01*
X609600Y355092D02*
X609600Y292100D01*
X609600Y355092D02*
X659892Y405384D01*
X660400Y406400D01*
X661416Y278892D02*
X661416Y275844D01*
X678180Y259080D01*
X678180Y195072D01*
X661416Y178308D01*
X661416Y278892D02*
X660400Y279400D01*
X661416Y178308D02*
X660400Y177800D01*
X257556Y521208D02*
X254508Y521208D01*
X257556Y521208D02*
X275844Y539496D01*
X663448Y539496D01*
X678180Y524764D01*
X678180Y473964D01*
X661416Y457200D01*
X254508Y521208D02*
X254000Y520700D01*
X660400Y457200D02*
X661416Y457200D01*
X278892Y510540D02*
X278892Y519684D01*
X278892Y510540D02*
X117348Y348996D01*
X94488Y348996D01*
X88392Y342900D02*
X76200Y330708D01*
X88392Y342900D02*
X94488Y348996D01*
X278892Y519684D02*
X279400Y520700D01*
X76200Y330708D02*
X76200Y330200D01*
X88392Y342900D02*
X100584Y330708D01*
X101600Y330200D01*
X117348Y339852D02*
X117348Y348996D01*
X117348Y339852D02*
X127000Y330200D01*
X659892Y326136D02*
X659892Y355092D01*
X609600Y275844D02*
X597408Y263652D01*
X609600Y275844D02*
X659892Y326136D01*
X597408Y112776D02*
X597408Y102108D01*
X597408Y112776D02*
X597408Y263652D01*
X659892Y355092D02*
X660400Y355600D01*
X597408Y102108D02*
X596900Y101600D01*
X556260Y102108D02*
X521208Y102108D01*
X556260Y102108D02*
X566928Y112776D01*
X597408Y112776D01*
X521208Y102108D02*
X520700Y101600D01*
X609600Y275844D02*
X544068Y341376D01*
X544068Y358140D01*
X467868Y434340D01*
X467868Y445008D01*
X446532Y466344D01*
X323088Y466344D01*
X278892Y510540D01*
X279400Y520700D01*
M02*
