G04 EAGLE Gerber X2 export*
%TF.Part,Single*%
%TF.FileFunction,Copper,L1,Top,Mixed*%
%TF.FilePolarity,Positive*%
%TF.GenerationSoftware,Autodesk,EAGLE,9.1.3*%
%TF.CreationDate,2018-09-07T19:45:19Z*%
G75*
%MOMM*%
%FSLAX34Y34*%
%LPD*%
%AMOC8*
5,1,8,0,0,1.08239X$1,22.5*%
G01*
%ADD10C,0.152400*%
%ADD11C,1.524000*%
%ADD12P,1.732040X8X22.500000*%
%ADD13C,1.676400*%
%ADD14C,1.676400*%
%ADD15P,1.429621X8X22.500000*%
%ADD16P,1.814519X8X22.500000*%
%ADD17R,1.676400X1.676400*%


D10*
X369062Y309118D02*
X374481Y292862D01*
X379899Y309118D01*
X389169Y292862D02*
X392782Y292862D01*
X389169Y292862D02*
X389051Y292864D01*
X388933Y292870D01*
X388815Y292879D01*
X388698Y292893D01*
X388581Y292910D01*
X388464Y292931D01*
X388349Y292956D01*
X388234Y292985D01*
X388120Y293018D01*
X388008Y293054D01*
X387897Y293094D01*
X387787Y293137D01*
X387678Y293184D01*
X387571Y293234D01*
X387466Y293289D01*
X387363Y293346D01*
X387262Y293407D01*
X387162Y293471D01*
X387065Y293538D01*
X386970Y293608D01*
X386878Y293682D01*
X386787Y293758D01*
X386700Y293838D01*
X386615Y293920D01*
X386533Y294005D01*
X386453Y294092D01*
X386377Y294183D01*
X386303Y294275D01*
X386233Y294370D01*
X386166Y294467D01*
X386102Y294567D01*
X386041Y294668D01*
X385984Y294771D01*
X385929Y294876D01*
X385879Y294983D01*
X385832Y295092D01*
X385789Y295202D01*
X385749Y295313D01*
X385713Y295425D01*
X385680Y295539D01*
X385651Y295654D01*
X385626Y295769D01*
X385605Y295886D01*
X385588Y296003D01*
X385574Y296120D01*
X385565Y296238D01*
X385559Y296356D01*
X385557Y296474D01*
X385557Y305506D01*
X385559Y305624D01*
X385565Y305742D01*
X385574Y305860D01*
X385588Y305977D01*
X385605Y306094D01*
X385626Y306211D01*
X385651Y306326D01*
X385680Y306441D01*
X385713Y306555D01*
X385749Y306667D01*
X385789Y306778D01*
X385832Y306888D01*
X385879Y306997D01*
X385929Y307104D01*
X385983Y307209D01*
X386041Y307312D01*
X386102Y307413D01*
X386166Y307513D01*
X386233Y307610D01*
X386303Y307705D01*
X386377Y307797D01*
X386453Y307888D01*
X386533Y307975D01*
X386615Y308060D01*
X386700Y308142D01*
X386787Y308222D01*
X386878Y308298D01*
X386970Y308372D01*
X387065Y308442D01*
X387162Y308509D01*
X387262Y308573D01*
X387363Y308634D01*
X387466Y308691D01*
X387571Y308745D01*
X387678Y308796D01*
X387787Y308843D01*
X387897Y308886D01*
X388008Y308926D01*
X388120Y308962D01*
X388234Y308995D01*
X388349Y309024D01*
X388464Y309049D01*
X388581Y309070D01*
X388698Y309087D01*
X388815Y309101D01*
X388933Y309110D01*
X389051Y309116D01*
X389169Y309118D01*
X392782Y309118D01*
X402195Y292862D02*
X405808Y292862D01*
X402195Y292862D02*
X402077Y292864D01*
X401959Y292870D01*
X401841Y292879D01*
X401724Y292893D01*
X401607Y292910D01*
X401490Y292931D01*
X401375Y292956D01*
X401260Y292985D01*
X401146Y293018D01*
X401034Y293054D01*
X400923Y293094D01*
X400813Y293137D01*
X400704Y293184D01*
X400597Y293234D01*
X400492Y293289D01*
X400389Y293346D01*
X400288Y293407D01*
X400188Y293471D01*
X400091Y293538D01*
X399996Y293608D01*
X399904Y293682D01*
X399813Y293758D01*
X399726Y293838D01*
X399641Y293920D01*
X399559Y294005D01*
X399479Y294092D01*
X399403Y294183D01*
X399329Y294275D01*
X399259Y294370D01*
X399192Y294467D01*
X399128Y294567D01*
X399067Y294668D01*
X399010Y294771D01*
X398955Y294876D01*
X398905Y294983D01*
X398858Y295092D01*
X398815Y295202D01*
X398775Y295313D01*
X398739Y295425D01*
X398706Y295539D01*
X398677Y295654D01*
X398652Y295769D01*
X398631Y295886D01*
X398614Y296003D01*
X398600Y296120D01*
X398591Y296238D01*
X398585Y296356D01*
X398583Y296474D01*
X398583Y305506D01*
X398585Y305624D01*
X398591Y305742D01*
X398600Y305860D01*
X398614Y305977D01*
X398631Y306094D01*
X398652Y306211D01*
X398677Y306326D01*
X398706Y306441D01*
X398739Y306555D01*
X398775Y306667D01*
X398815Y306778D01*
X398858Y306888D01*
X398905Y306997D01*
X398955Y307104D01*
X399009Y307209D01*
X399067Y307312D01*
X399128Y307413D01*
X399192Y307513D01*
X399259Y307610D01*
X399329Y307705D01*
X399403Y307797D01*
X399479Y307888D01*
X399559Y307975D01*
X399641Y308060D01*
X399726Y308142D01*
X399813Y308222D01*
X399904Y308298D01*
X399996Y308372D01*
X400091Y308442D01*
X400188Y308509D01*
X400288Y308573D01*
X400389Y308634D01*
X400492Y308691D01*
X400597Y308745D01*
X400704Y308796D01*
X400813Y308843D01*
X400923Y308886D01*
X401034Y308926D01*
X401146Y308962D01*
X401260Y308995D01*
X401375Y309024D01*
X401490Y309049D01*
X401607Y309070D01*
X401724Y309087D01*
X401841Y309101D01*
X401959Y309110D01*
X402077Y309116D01*
X402195Y309118D01*
X405808Y309118D01*
D11*
X472440Y45720D02*
X472440Y30480D01*
X447040Y30480D02*
X447040Y45720D01*
X421640Y45720D02*
X421640Y30480D01*
X396240Y30480D02*
X396240Y45720D01*
X370840Y45720D02*
X370840Y30480D01*
X345440Y30480D02*
X345440Y45720D01*
X320040Y45720D02*
X320040Y30480D01*
X294640Y30480D02*
X294640Y45720D01*
X254000Y45720D02*
X254000Y30480D01*
X228600Y30480D02*
X228600Y45720D01*
X203200Y45720D02*
X203200Y30480D01*
X177800Y30480D02*
X177800Y45720D01*
X152400Y45720D02*
X152400Y30480D01*
X127000Y30480D02*
X127000Y45720D01*
X101600Y45720D02*
X101600Y30480D01*
X76200Y30480D02*
X76200Y45720D01*
X381000Y513080D02*
X381000Y528320D01*
X355600Y528320D02*
X355600Y513080D01*
X330200Y513080D02*
X330200Y528320D01*
X304800Y528320D02*
X304800Y513080D01*
X279400Y513080D02*
X279400Y528320D01*
X254000Y528320D02*
X254000Y513080D01*
X203200Y513080D02*
X203200Y528320D01*
X177800Y528320D02*
X177800Y513080D01*
X152400Y513080D02*
X152400Y528320D01*
X127000Y528320D02*
X127000Y513080D01*
X101600Y513080D02*
X101600Y528320D01*
X76200Y528320D02*
X76200Y513080D01*
X292100Y363220D02*
X292100Y347980D01*
X317500Y347980D02*
X317500Y363220D01*
X342900Y363220D02*
X342900Y347980D01*
X368300Y347980D02*
X368300Y363220D01*
X76200Y398780D02*
X76200Y414020D01*
X101600Y414020D02*
X101600Y398780D01*
X127000Y398780D02*
X127000Y414020D01*
X152400Y414020D02*
X152400Y398780D01*
X76200Y337820D02*
X76200Y322580D01*
X101600Y322580D02*
X101600Y337820D01*
X127000Y337820D02*
X127000Y322580D01*
X152400Y322580D02*
X152400Y337820D01*
D12*
X457200Y241300D03*
X254000Y406400D03*
D11*
X50800Y261620D02*
X50800Y246380D01*
X76200Y246380D02*
X76200Y261620D01*
X101600Y261620D02*
X101600Y246380D01*
X127000Y109220D02*
X127000Y93980D01*
X152400Y93980D02*
X152400Y109220D01*
X177800Y109220D02*
X177800Y93980D01*
X203200Y93980D02*
X203200Y109220D01*
X292100Y246380D02*
X292100Y261620D01*
X317500Y261620D02*
X317500Y246380D01*
D13*
X457200Y334518D02*
X457200Y351282D01*
X495300Y351282D02*
X495300Y334518D01*
X533400Y334518D02*
X533400Y351282D01*
X457200Y423418D02*
X457200Y440182D01*
X495300Y440182D02*
X495300Y423418D01*
X533400Y423418D02*
X533400Y440182D01*
D14*
X254000Y266700D03*
X254000Y368300D03*
X177800Y215900D03*
X279400Y215900D03*
D15*
X368300Y165100D03*
X419100Y165100D03*
X482600Y165100D03*
X533400Y165100D03*
X368300Y114300D03*
X419100Y114300D03*
D16*
X495300Y101600D03*
D17*
X520700Y101600D03*
D16*
X571500Y101600D03*
D17*
X596900Y101600D03*
D16*
X635000Y63500D03*
D17*
X660400Y63500D03*
D12*
X558800Y203200D03*
X609600Y203200D03*
X609600Y292100D03*
X558800Y292100D03*
D11*
X652780Y508000D02*
X668020Y508000D01*
X668020Y482600D02*
X652780Y482600D01*
X652780Y457200D02*
X668020Y457200D01*
X668020Y406400D02*
X652780Y406400D01*
X652780Y381000D02*
X668020Y381000D01*
X668020Y355600D02*
X652780Y355600D01*
X652780Y304800D02*
X668020Y304800D01*
X668020Y279400D02*
X652780Y279400D01*
X652780Y254000D02*
X668020Y254000D01*
X668020Y203200D02*
X652780Y203200D01*
X652780Y177800D02*
X668020Y177800D01*
X668020Y152400D02*
X652780Y152400D01*
D10*
X495300Y405892D02*
X443484Y405892D01*
X374396Y336804D01*
X336804Y336804D01*
X318516Y355092D01*
X495300Y405892D02*
X495300Y431800D01*
X318516Y355092D02*
X317500Y355600D01*
X304800Y394716D02*
X304800Y520700D01*
X304800Y394716D02*
X342900Y356616D01*
X342900Y355600D01*
X356616Y367284D02*
X356616Y519684D01*
X356616Y367284D02*
X368300Y355600D01*
X356616Y519684D02*
X355600Y520700D01*
X79248Y406908D02*
X76200Y406908D01*
X89916Y417576D02*
X175260Y502920D01*
X89916Y417576D02*
X79248Y406908D01*
X175260Y502920D02*
X213360Y502920D01*
X249936Y539496D01*
X310896Y539496D01*
X329184Y521208D01*
X76200Y406908D02*
X76200Y406400D01*
X329184Y521208D02*
X330200Y520700D01*
X100584Y406908D02*
X89916Y417576D01*
X100584Y406908D02*
X101600Y406400D01*
X102108Y406908D02*
X126492Y406908D01*
X102108Y406908D02*
X101600Y406400D01*
X126492Y406908D02*
X127000Y406400D01*
X128016Y406908D02*
X152400Y406908D01*
X152400Y406400D01*
X128016Y406908D02*
X127000Y406400D01*
X214884Y342900D02*
X214884Y304800D01*
X214884Y342900D02*
X152400Y405384D01*
X214884Y304800D02*
X254000Y266700D01*
X152400Y405384D02*
X152400Y406400D01*
X459232Y239268D02*
X459232Y50292D01*
X459232Y239268D02*
X457200Y241300D01*
X459232Y50292D02*
X447040Y38100D01*
X420624Y38100D02*
X279400Y179324D01*
X172720Y179324D01*
X102108Y249936D01*
X102108Y252984D01*
X420624Y38100D02*
X421640Y38100D01*
X102108Y252984D02*
X101600Y254000D01*
X393192Y38100D02*
X396240Y38100D01*
X393192Y38100D02*
X267716Y163576D01*
X165608Y163576D01*
X76200Y252984D01*
X76200Y254000D01*
X367284Y38100D02*
X370840Y38100D01*
X367284Y38100D02*
X348996Y19812D01*
X173736Y19812D01*
X163068Y30480D01*
X163068Y115824D01*
X73152Y205740D01*
X73152Y231648D01*
X50800Y254000D01*
X128016Y100584D02*
X128016Y38100D01*
X127000Y38100D01*
X128016Y100584D02*
X127000Y101600D01*
X152400Y101600D02*
X152400Y38100D01*
X178308Y38100D02*
X178308Y100584D01*
X178308Y38100D02*
X177800Y38100D01*
X178308Y100584D02*
X177800Y101600D01*
X204216Y100584D02*
X204216Y38100D01*
X203200Y38100D01*
X204216Y100584D02*
X203200Y101600D01*
X105156Y38100D02*
X101600Y38100D01*
X105156Y38100D02*
X126492Y16764D01*
X422148Y16764D01*
X432816Y27432D01*
X432816Y318516D01*
X457200Y342900D01*
X481584Y342900D02*
X495300Y342900D01*
X481584Y342900D02*
X461772Y362712D01*
X417576Y362712D01*
X375920Y321056D01*
X326644Y321056D01*
X292100Y355600D01*
X318516Y304800D02*
X318516Y254508D01*
X317500Y254000D01*
X318516Y304800D02*
X254000Y368300D01*
X291084Y252984D02*
X291084Y227076D01*
X280416Y216408D01*
X291084Y252984D02*
X292100Y254000D01*
X280416Y216408D02*
X279400Y215900D01*
X533400Y165100D02*
X533400Y140208D01*
X571500Y102108D01*
X571500Y101600D01*
X659892Y381000D02*
X659892Y384048D01*
X655320Y388620D02*
X641604Y402336D01*
X655320Y388620D02*
X659892Y384048D01*
X641604Y402336D02*
X641604Y463296D01*
X659892Y481584D01*
X659892Y381000D02*
X660400Y381000D01*
X659892Y481584D02*
X660400Y482600D01*
X655320Y388620D02*
X558800Y292100D01*
X583692Y178308D02*
X659892Y178308D01*
X583692Y178308D02*
X558800Y203200D01*
X659892Y178308D02*
X660400Y177800D01*
X641604Y202692D02*
X609600Y202692D01*
X641604Y202692D02*
X659892Y202692D01*
X660400Y203200D01*
X609600Y203200D02*
X609600Y202692D01*
X659892Y301752D02*
X659892Y304800D01*
X659892Y301752D02*
X641604Y283464D01*
X641604Y202692D01*
X659892Y304800D02*
X660400Y304800D01*
X254508Y406908D02*
X254508Y519684D01*
X254000Y520700D01*
X254508Y406908D02*
X254000Y406400D01*
X661416Y257556D02*
X661416Y254508D01*
X661416Y257556D02*
X678180Y274320D01*
X678180Y440436D01*
X661416Y457200D01*
X661416Y254508D02*
X660400Y254000D01*
X660400Y457200D02*
X661416Y457200D01*
X76200Y330200D02*
X76200Y301752D01*
X163068Y214884D02*
X164592Y213360D01*
X163068Y214884D02*
X76200Y301752D01*
X128016Y330708D02*
X152400Y330708D01*
X152400Y330200D01*
X128016Y330708D02*
X127000Y330200D01*
X163068Y214884D02*
X176784Y214884D01*
X177800Y215900D01*
X650748Y64008D02*
X659892Y64008D01*
X650748Y64008D02*
X614172Y100584D01*
X597408Y100584D01*
X659892Y64008D02*
X660400Y63500D01*
X597408Y100584D02*
X596900Y101600D01*
M02*
