M48
;GenerationSoftware,Autodesk,EAGLE,9.1.3*%
;CreationDate,2018-09-07T19:45:19Z*%
FMAT,2
ICI,OFF
METRIC,TZ,000.000
T5C0.813
T4C1.016
T3C1.118
T2C2.000
T1C3.200
%
G90
M71
T1
X55880Y3810
X5080Y19050
X5080Y46990
T2
X15950Y27496
T3
X45720Y34290
X53340Y34290
X49530Y34290
X45720Y43180
X49530Y43180
X53340Y43180
X25400Y26670
X25400Y36830
X17780Y21590
X27940Y21590
T4
X29464Y3810
X25400Y3810
X22860Y3810
X20320Y3810
X17780Y3810
X15240Y3810
X12700Y3810
X10160Y3810
X7620Y3810
X38100Y52070
X35560Y52070
X33020Y52070
X30480Y52070
X27940Y52070
X25400Y52070
X20320Y52070
X17780Y52070
X15240Y52070
X12700Y52070
X10160Y52070
X7620Y52070
X29210Y35560
X31750Y35560
X34290Y35560
X7620Y40640
X10160Y40640
X12700Y40640
X15240Y40640
X7620Y33020
X10160Y33020
X12700Y33020
X15240Y33020
X36830Y35560
X7620Y25400
X10160Y25400
X12700Y10160
X15240Y10160
X17780Y10160
X20320Y10160
X29210Y25400
X31750Y25400
X5080Y25400
X47244Y3810
X44704Y3810
X42164Y3810
X39624Y3810
X37084Y3810
X34544Y3810
X32004Y3810
X66040Y50800
X66040Y15240
X66040Y48260
X66040Y45720
X66040Y40640
X66040Y38100
X66040Y35560
X66040Y30480
X66040Y27940
X66040Y25400
X66040Y20320
X66040Y17780
T5
X63500Y6350
X66040Y6350
X55880Y20320
X60960Y20320
X60960Y29210
X55880Y29210
X45720Y24130
X36830Y16510
X41910Y16510
X48260Y16510
X53340Y16510
X36830Y11430
X25400Y40640
X49530Y10160
X52070Y10160
X57150Y10160
X59690Y10160
X41910Y11430
M30