G04 EAGLE Gerber X2 export*
%TF.Part,Single*%
%TF.FileFunction,Profile,NP*%
%TF.FilePolarity,Positive*%
%TF.GenerationSoftware,Autodesk,EAGLE,9.1.3*%
%TF.CreationDate,2018-09-07T19:45:19Z*%
G75*
%MOMM*%
%FSLAX34Y34*%
%LPD*%
%AMOC8*
5,1,8,0,0,1.08239X$1,22.5*%
G01*
%ADD10C,0.254000*%


D10*
X12700Y0D02*
X723700Y0D01*
X723700Y555500D01*
X12700Y555500D01*
X12700Y0D01*
X542800Y38624D02*
X542869Y39669D01*
X543005Y40708D01*
X543210Y41735D01*
X543481Y42747D01*
X543817Y43739D01*
X544218Y44707D01*
X544682Y45646D01*
X545206Y46554D01*
X545788Y47425D01*
X546425Y48256D01*
X547116Y49043D01*
X547857Y49784D01*
X548644Y50475D01*
X549475Y51113D01*
X550346Y51695D01*
X551254Y52218D01*
X552193Y52682D01*
X553161Y53083D01*
X554153Y53419D01*
X555165Y53690D01*
X556192Y53895D01*
X557231Y54032D01*
X558276Y54100D01*
X559324Y54100D01*
X560369Y54032D01*
X561408Y53895D01*
X562435Y53690D01*
X563447Y53419D01*
X564439Y53083D01*
X565407Y52682D01*
X566346Y52218D01*
X567254Y51695D01*
X568125Y51113D01*
X568956Y50475D01*
X569743Y49784D01*
X570484Y49043D01*
X571175Y48256D01*
X571813Y47425D01*
X572395Y46554D01*
X572918Y45646D01*
X573382Y44707D01*
X573783Y43739D01*
X574119Y42747D01*
X574390Y41735D01*
X574595Y40708D01*
X574732Y39669D01*
X574800Y38624D01*
X574800Y37576D01*
X574732Y36531D01*
X574595Y35492D01*
X574390Y34465D01*
X574119Y33453D01*
X573783Y32461D01*
X573382Y31493D01*
X572918Y30554D01*
X572395Y29646D01*
X571813Y28775D01*
X571175Y27944D01*
X570484Y27157D01*
X569743Y26416D01*
X568956Y25725D01*
X568125Y25088D01*
X567254Y24506D01*
X566346Y23982D01*
X565407Y23518D01*
X564439Y23117D01*
X563447Y22781D01*
X562435Y22510D01*
X561408Y22305D01*
X560369Y22169D01*
X559324Y22100D01*
X558276Y22100D01*
X557231Y22169D01*
X556192Y22305D01*
X555165Y22510D01*
X554153Y22781D01*
X553161Y23117D01*
X552193Y23518D01*
X551254Y23982D01*
X550346Y24506D01*
X549475Y25088D01*
X548644Y25725D01*
X547857Y26416D01*
X547116Y27157D01*
X546425Y27944D01*
X545788Y28775D01*
X545206Y29646D01*
X544682Y30554D01*
X544218Y31493D01*
X543817Y32461D01*
X543481Y33453D01*
X543210Y34465D01*
X543005Y35492D01*
X542869Y36531D01*
X542800Y37576D01*
X542800Y38624D01*
X34800Y191024D02*
X34869Y192069D01*
X35005Y193108D01*
X35210Y194135D01*
X35481Y195147D01*
X35817Y196139D01*
X36218Y197107D01*
X36682Y198046D01*
X37206Y198954D01*
X37788Y199825D01*
X38425Y200656D01*
X39116Y201443D01*
X39857Y202184D01*
X40644Y202875D01*
X41475Y203513D01*
X42346Y204095D01*
X43254Y204618D01*
X44193Y205082D01*
X45161Y205483D01*
X46153Y205819D01*
X47165Y206090D01*
X48192Y206295D01*
X49231Y206432D01*
X50276Y206500D01*
X51324Y206500D01*
X52369Y206432D01*
X53408Y206295D01*
X54435Y206090D01*
X55447Y205819D01*
X56439Y205483D01*
X57407Y205082D01*
X58346Y204618D01*
X59254Y204095D01*
X60125Y203513D01*
X60956Y202875D01*
X61743Y202184D01*
X62484Y201443D01*
X63175Y200656D01*
X63813Y199825D01*
X64395Y198954D01*
X64918Y198046D01*
X65382Y197107D01*
X65783Y196139D01*
X66119Y195147D01*
X66390Y194135D01*
X66595Y193108D01*
X66732Y192069D01*
X66800Y191024D01*
X66800Y189976D01*
X66732Y188931D01*
X66595Y187892D01*
X66390Y186865D01*
X66119Y185853D01*
X65783Y184861D01*
X65382Y183893D01*
X64918Y182954D01*
X64395Y182046D01*
X63813Y181175D01*
X63175Y180344D01*
X62484Y179557D01*
X61743Y178816D01*
X60956Y178125D01*
X60125Y177488D01*
X59254Y176906D01*
X58346Y176382D01*
X57407Y175918D01*
X56439Y175517D01*
X55447Y175181D01*
X54435Y174910D01*
X53408Y174705D01*
X52369Y174569D01*
X51324Y174500D01*
X50276Y174500D01*
X49231Y174569D01*
X48192Y174705D01*
X47165Y174910D01*
X46153Y175181D01*
X45161Y175517D01*
X44193Y175918D01*
X43254Y176382D01*
X42346Y176906D01*
X41475Y177488D01*
X40644Y178125D01*
X39857Y178816D01*
X39116Y179557D01*
X38425Y180344D01*
X37788Y181175D01*
X37206Y182046D01*
X36682Y182954D01*
X36218Y183893D01*
X35817Y184861D01*
X35481Y185853D01*
X35210Y186865D01*
X35005Y187892D01*
X34869Y188931D01*
X34800Y189976D01*
X34800Y191024D01*
X34800Y470424D02*
X34869Y471469D01*
X35005Y472508D01*
X35210Y473535D01*
X35481Y474547D01*
X35817Y475539D01*
X36218Y476507D01*
X36682Y477446D01*
X37206Y478354D01*
X37788Y479225D01*
X38425Y480056D01*
X39116Y480843D01*
X39857Y481584D01*
X40644Y482275D01*
X41475Y482913D01*
X42346Y483495D01*
X43254Y484018D01*
X44193Y484482D01*
X45161Y484883D01*
X46153Y485219D01*
X47165Y485490D01*
X48192Y485695D01*
X49231Y485832D01*
X50276Y485900D01*
X51324Y485900D01*
X52369Y485832D01*
X53408Y485695D01*
X54435Y485490D01*
X55447Y485219D01*
X56439Y484883D01*
X57407Y484482D01*
X58346Y484018D01*
X59254Y483495D01*
X60125Y482913D01*
X60956Y482275D01*
X61743Y481584D01*
X62484Y480843D01*
X63175Y480056D01*
X63813Y479225D01*
X64395Y478354D01*
X64918Y477446D01*
X65382Y476507D01*
X65783Y475539D01*
X66119Y474547D01*
X66390Y473535D01*
X66595Y472508D01*
X66732Y471469D01*
X66800Y470424D01*
X66800Y469376D01*
X66732Y468331D01*
X66595Y467292D01*
X66390Y466265D01*
X66119Y465253D01*
X65783Y464261D01*
X65382Y463293D01*
X64918Y462354D01*
X64395Y461446D01*
X63813Y460575D01*
X63175Y459744D01*
X62484Y458957D01*
X61743Y458216D01*
X60956Y457525D01*
X60125Y456888D01*
X59254Y456306D01*
X58346Y455782D01*
X57407Y455318D01*
X56439Y454917D01*
X55447Y454581D01*
X54435Y454310D01*
X53408Y454105D01*
X52369Y453969D01*
X51324Y453900D01*
X50276Y453900D01*
X49231Y453969D01*
X48192Y454105D01*
X47165Y454310D01*
X46153Y454581D01*
X45161Y454917D01*
X44193Y455318D01*
X43254Y455782D01*
X42346Y456306D01*
X41475Y456888D01*
X40644Y457525D01*
X39857Y458216D01*
X39116Y458957D01*
X38425Y459744D01*
X37788Y460575D01*
X37206Y461446D01*
X36682Y462354D01*
X36218Y463293D01*
X35817Y464261D01*
X35481Y465253D01*
X35210Y466265D01*
X35005Y467292D01*
X34869Y468331D01*
X34800Y469376D01*
X34800Y470424D01*
X149504Y275399D02*
X149580Y276269D01*
X149732Y277128D01*
X149958Y277972D01*
X150256Y278792D01*
X150625Y279584D01*
X151062Y280340D01*
X151563Y281055D01*
X152124Y281724D01*
X152742Y282342D01*
X153411Y282903D01*
X154126Y283404D01*
X154882Y283841D01*
X155674Y284210D01*
X156494Y284508D01*
X157338Y284734D01*
X158198Y284886D01*
X159067Y284962D01*
X159941Y284962D01*
X160811Y284886D01*
X161670Y284734D01*
X162514Y284508D01*
X163334Y284210D01*
X164126Y283841D01*
X164882Y283404D01*
X165597Y282903D01*
X166266Y282342D01*
X166884Y281724D01*
X167445Y281055D01*
X167946Y280340D01*
X168383Y279584D01*
X168752Y278792D01*
X169050Y277972D01*
X169276Y277128D01*
X169428Y276269D01*
X169504Y275399D01*
X169504Y274525D01*
X169428Y273656D01*
X169276Y272796D01*
X169050Y271952D01*
X168752Y271132D01*
X168383Y270340D01*
X167946Y269584D01*
X167445Y268869D01*
X166884Y268200D01*
X166266Y267582D01*
X165597Y267021D01*
X164882Y266520D01*
X164126Y266083D01*
X163334Y265714D01*
X162514Y265416D01*
X161670Y265190D01*
X160811Y265038D01*
X159941Y264962D01*
X159067Y264962D01*
X158198Y265038D01*
X157338Y265190D01*
X156494Y265416D01*
X155674Y265714D01*
X154882Y266083D01*
X154126Y266520D01*
X153411Y267021D01*
X152742Y267582D01*
X152124Y268200D01*
X151563Y268869D01*
X151062Y269584D01*
X150625Y270340D01*
X150256Y271132D01*
X149958Y271952D01*
X149732Y272796D01*
X149580Y273656D01*
X149504Y274525D01*
X149504Y275399D01*
M02*
