G04 EAGLE Gerber X2 export*
%TF.Part,Single*%
%TF.FileFunction,Soldermask,Top,1*%
%TF.FilePolarity,Negative*%
%TF.GenerationSoftware,Autodesk,EAGLE,9.1.3*%
%TF.CreationDate,2018-09-07T19:45:19Z*%
G75*
%MOMM*%
%FSLAX34Y34*%
%LPD*%
%AMOC8*
5,1,8,0,0,1.08239X$1,22.5*%
G01*
%ADD10C,1.727200*%
%ADD11C,3.403200*%
%ADD12C,2.203200*%
%ADD13P,1.951982X8X22.500000*%
%ADD14C,1.879600*%
%ADD15C,1.879600*%
%ADD16P,1.649562X8X22.500000*%
%ADD17P,2.034460X8X22.500000*%
%ADD18R,1.879600X1.879600*%


D10*
X472440Y45720D02*
X472440Y30480D01*
X447040Y30480D02*
X447040Y45720D01*
X421640Y45720D02*
X421640Y30480D01*
X396240Y30480D02*
X396240Y45720D01*
X370840Y45720D02*
X370840Y30480D01*
X345440Y30480D02*
X345440Y45720D01*
X320040Y45720D02*
X320040Y30480D01*
X294640Y30480D02*
X294640Y45720D01*
X254000Y45720D02*
X254000Y30480D01*
X228600Y30480D02*
X228600Y45720D01*
X203200Y45720D02*
X203200Y30480D01*
X177800Y30480D02*
X177800Y45720D01*
X152400Y45720D02*
X152400Y30480D01*
X127000Y30480D02*
X127000Y45720D01*
X101600Y45720D02*
X101600Y30480D01*
X76200Y30480D02*
X76200Y45720D01*
X381000Y513080D02*
X381000Y528320D01*
X355600Y528320D02*
X355600Y513080D01*
X330200Y513080D02*
X330200Y528320D01*
X304800Y528320D02*
X304800Y513080D01*
X279400Y513080D02*
X279400Y528320D01*
X254000Y528320D02*
X254000Y513080D01*
X203200Y513080D02*
X203200Y528320D01*
X177800Y528320D02*
X177800Y513080D01*
X152400Y513080D02*
X152400Y528320D01*
X127000Y528320D02*
X127000Y513080D01*
X101600Y513080D02*
X101600Y528320D01*
X76200Y528320D02*
X76200Y513080D01*
D11*
X558800Y38100D03*
X50800Y190500D03*
X50800Y469900D03*
D12*
X159504Y274962D03*
D10*
X292100Y347980D02*
X292100Y363220D01*
X317500Y363220D02*
X317500Y347980D01*
X342900Y347980D02*
X342900Y363220D01*
X368300Y363220D02*
X368300Y347980D01*
X76200Y398780D02*
X76200Y414020D01*
X101600Y414020D02*
X101600Y398780D01*
X127000Y398780D02*
X127000Y414020D01*
X152400Y414020D02*
X152400Y398780D01*
X76200Y337820D02*
X76200Y322580D01*
X101600Y322580D02*
X101600Y337820D01*
X127000Y337820D02*
X127000Y322580D01*
X152400Y322580D02*
X152400Y337820D01*
D13*
X457200Y241300D03*
X254000Y406400D03*
D10*
X50800Y261620D02*
X50800Y246380D01*
X76200Y246380D02*
X76200Y261620D01*
X101600Y261620D02*
X101600Y246380D01*
X127000Y109220D02*
X127000Y93980D01*
X152400Y93980D02*
X152400Y109220D01*
X177800Y109220D02*
X177800Y93980D01*
X203200Y93980D02*
X203200Y109220D01*
X292100Y246380D02*
X292100Y261620D01*
X317500Y261620D02*
X317500Y246380D01*
D14*
X457200Y334518D02*
X457200Y351282D01*
X495300Y351282D02*
X495300Y334518D01*
X533400Y334518D02*
X533400Y351282D01*
X457200Y423418D02*
X457200Y440182D01*
X495300Y440182D02*
X495300Y423418D01*
X533400Y423418D02*
X533400Y440182D01*
D15*
X254000Y266700D03*
X254000Y368300D03*
X177800Y215900D03*
X279400Y215900D03*
D16*
X368300Y165100D03*
X419100Y165100D03*
X482600Y165100D03*
X533400Y165100D03*
X368300Y114300D03*
X419100Y114300D03*
D17*
X495300Y101600D03*
D18*
X520700Y101600D03*
D17*
X571500Y101600D03*
D18*
X596900Y101600D03*
D17*
X635000Y63500D03*
D18*
X660400Y63500D03*
D13*
X558800Y203200D03*
X609600Y203200D03*
X609600Y292100D03*
X558800Y292100D03*
D10*
X652780Y508000D02*
X668020Y508000D01*
X668020Y482600D02*
X652780Y482600D01*
X652780Y457200D02*
X668020Y457200D01*
X668020Y406400D02*
X652780Y406400D01*
X652780Y381000D02*
X668020Y381000D01*
X668020Y355600D02*
X652780Y355600D01*
X652780Y304800D02*
X668020Y304800D01*
X668020Y279400D02*
X652780Y279400D01*
X652780Y254000D02*
X668020Y254000D01*
X668020Y203200D02*
X652780Y203200D01*
X652780Y177800D02*
X668020Y177800D01*
X668020Y152400D02*
X652780Y152400D01*
M02*
