G04 EAGLE Gerber X2 export*
%TF.Part,Single*%
%TF.FileFunction,Copper,L2,Bot,Mixed*%
%TF.FilePolarity,Positive*%
%TF.GenerationSoftware,Autodesk,EAGLE,9.1.3*%
%TF.CreationDate,2018-09-14T18:40:43Z*%
G75*
%MOMM*%
%FSLAX34Y34*%
%LPD*%
%AMOC8*
5,1,8,0,0,1.08239X$1,22.5*%
G01*
%ADD10C,0.101600*%
%ADD11C,1.676400*%
%ADD12P,3.436588X8X202.500000*%
%ADD13C,1.524000*%
%ADD14P,1.814519X8X22.500000*%
%ADD15R,1.676400X1.676400*%
%ADD16P,3.436588X8X112.500000*%
%ADD17P,1.429621X8X292.500000*%
%ADD18P,1.429621X8X202.500000*%
%ADD19P,1.649562X8X22.500000*%
%ADD20C,0.406400*%
%ADD21C,0.254000*%
%ADD22C,0.906400*%


D10*
X76708Y216408D02*
X89662Y216408D01*
X82465Y220726D01*
X89662Y225044D01*
X76708Y225044D01*
X76708Y232998D02*
X76708Y236597D01*
X76708Y232998D02*
X76710Y232906D01*
X76716Y232815D01*
X76725Y232724D01*
X76739Y232633D01*
X76756Y232543D01*
X76778Y232454D01*
X76803Y232366D01*
X76831Y232279D01*
X76864Y232193D01*
X76900Y232109D01*
X76939Y232026D01*
X76982Y231945D01*
X77029Y231866D01*
X77078Y231789D01*
X77131Y231714D01*
X77187Y231642D01*
X77246Y231572D01*
X77308Y231504D01*
X77373Y231439D01*
X77441Y231377D01*
X77511Y231318D01*
X77583Y231262D01*
X77658Y231209D01*
X77735Y231160D01*
X77814Y231113D01*
X77895Y231070D01*
X77978Y231031D01*
X78062Y230995D01*
X78148Y230962D01*
X78235Y230934D01*
X78323Y230909D01*
X78412Y230887D01*
X78502Y230870D01*
X78593Y230856D01*
X78684Y230847D01*
X78775Y230841D01*
X78867Y230839D01*
X82465Y230839D01*
X82571Y230841D01*
X82678Y230847D01*
X82784Y230857D01*
X82889Y230870D01*
X82994Y230888D01*
X83098Y230910D01*
X83202Y230935D01*
X83304Y230964D01*
X83405Y230997D01*
X83505Y231033D01*
X83604Y231074D01*
X83700Y231118D01*
X83796Y231165D01*
X83889Y231216D01*
X83981Y231270D01*
X84070Y231328D01*
X84157Y231389D01*
X84242Y231453D01*
X84325Y231520D01*
X84405Y231590D01*
X84482Y231664D01*
X84556Y231739D01*
X84628Y231818D01*
X84697Y231899D01*
X84762Y231983D01*
X84825Y232069D01*
X84884Y232157D01*
X84940Y232248D01*
X84993Y232340D01*
X85042Y232435D01*
X85088Y232531D01*
X85130Y232629D01*
X85168Y232728D01*
X85203Y232828D01*
X85234Y232930D01*
X85261Y233033D01*
X85285Y233137D01*
X85304Y233241D01*
X85320Y233347D01*
X85332Y233452D01*
X85340Y233558D01*
X85344Y233665D01*
X85344Y233771D01*
X85340Y233878D01*
X85332Y233984D01*
X85320Y234089D01*
X85304Y234195D01*
X85285Y234299D01*
X85261Y234403D01*
X85234Y234506D01*
X85203Y234608D01*
X85168Y234708D01*
X85130Y234807D01*
X85088Y234905D01*
X85042Y235001D01*
X84993Y235096D01*
X84940Y235188D01*
X84884Y235279D01*
X84825Y235367D01*
X84762Y235453D01*
X84697Y235537D01*
X84628Y235618D01*
X84556Y235697D01*
X84482Y235772D01*
X84405Y235846D01*
X84325Y235916D01*
X84242Y235983D01*
X84157Y236047D01*
X84070Y236108D01*
X83981Y236166D01*
X83889Y236220D01*
X83796Y236271D01*
X83700Y236318D01*
X83604Y236362D01*
X83505Y236403D01*
X83405Y236439D01*
X83304Y236472D01*
X83202Y236501D01*
X83098Y236526D01*
X82994Y236548D01*
X82889Y236566D01*
X82784Y236579D01*
X82678Y236589D01*
X82571Y236595D01*
X82465Y236597D01*
X81026Y236597D01*
X81026Y230839D01*
X76708Y243909D02*
X76708Y246788D01*
X76708Y243909D02*
X76710Y243817D01*
X76716Y243726D01*
X76725Y243635D01*
X76739Y243544D01*
X76756Y243454D01*
X76778Y243365D01*
X76803Y243277D01*
X76831Y243190D01*
X76864Y243104D01*
X76900Y243020D01*
X76939Y242937D01*
X76982Y242856D01*
X77029Y242777D01*
X77078Y242700D01*
X77131Y242625D01*
X77187Y242553D01*
X77246Y242483D01*
X77308Y242415D01*
X77373Y242350D01*
X77441Y242288D01*
X77511Y242229D01*
X77583Y242173D01*
X77658Y242120D01*
X77735Y242071D01*
X77814Y242024D01*
X77895Y241981D01*
X77978Y241942D01*
X78062Y241906D01*
X78148Y241873D01*
X78235Y241845D01*
X78323Y241820D01*
X78412Y241798D01*
X78502Y241781D01*
X78593Y241767D01*
X78684Y241758D01*
X78775Y241752D01*
X78867Y241750D01*
X83185Y241750D01*
X83277Y241752D01*
X83368Y241758D01*
X83459Y241767D01*
X83550Y241781D01*
X83640Y241798D01*
X83729Y241820D01*
X83817Y241845D01*
X83904Y241873D01*
X83990Y241906D01*
X84074Y241942D01*
X84157Y241981D01*
X84238Y242024D01*
X84317Y242071D01*
X84394Y242120D01*
X84469Y242173D01*
X84541Y242229D01*
X84611Y242288D01*
X84679Y242350D01*
X84744Y242415D01*
X84806Y242483D01*
X84865Y242553D01*
X84921Y242625D01*
X84974Y242700D01*
X85023Y242777D01*
X85070Y242856D01*
X85113Y242937D01*
X85152Y243020D01*
X85188Y243104D01*
X85221Y243190D01*
X85249Y243277D01*
X85274Y243365D01*
X85296Y243454D01*
X85313Y243544D01*
X85327Y243635D01*
X85336Y243726D01*
X85342Y243817D01*
X85344Y243909D01*
X85344Y246788D01*
X76708Y253548D02*
X76708Y256427D01*
X76708Y253548D02*
X76710Y253456D01*
X76716Y253365D01*
X76725Y253274D01*
X76739Y253183D01*
X76756Y253093D01*
X76778Y253004D01*
X76803Y252916D01*
X76831Y252829D01*
X76864Y252743D01*
X76900Y252659D01*
X76939Y252576D01*
X76982Y252495D01*
X77029Y252416D01*
X77078Y252339D01*
X77131Y252264D01*
X77187Y252192D01*
X77246Y252122D01*
X77308Y252054D01*
X77373Y251989D01*
X77441Y251927D01*
X77511Y251868D01*
X77583Y251812D01*
X77658Y251759D01*
X77735Y251710D01*
X77814Y251663D01*
X77895Y251620D01*
X77978Y251581D01*
X78062Y251545D01*
X78148Y251512D01*
X78235Y251484D01*
X78323Y251459D01*
X78412Y251437D01*
X78502Y251420D01*
X78593Y251406D01*
X78684Y251397D01*
X78775Y251391D01*
X78867Y251389D01*
X83185Y251389D01*
X83277Y251391D01*
X83368Y251397D01*
X83459Y251406D01*
X83550Y251420D01*
X83640Y251437D01*
X83729Y251459D01*
X83817Y251484D01*
X83904Y251512D01*
X83990Y251545D01*
X84074Y251581D01*
X84157Y251620D01*
X84238Y251663D01*
X84317Y251710D01*
X84394Y251759D01*
X84469Y251812D01*
X84541Y251868D01*
X84611Y251927D01*
X84679Y251989D01*
X84744Y252054D01*
X84806Y252122D01*
X84865Y252192D01*
X84921Y252264D01*
X84974Y252339D01*
X85023Y252416D01*
X85070Y252495D01*
X85113Y252576D01*
X85152Y252659D01*
X85188Y252743D01*
X85221Y252829D01*
X85249Y252916D01*
X85274Y253004D01*
X85296Y253093D01*
X85313Y253183D01*
X85327Y253274D01*
X85336Y253365D01*
X85342Y253456D01*
X85344Y253548D01*
X85344Y256427D01*
X81746Y263471D02*
X81746Y266710D01*
X81746Y263471D02*
X81744Y263372D01*
X81738Y263273D01*
X81729Y263175D01*
X81715Y263077D01*
X81698Y262980D01*
X81676Y262883D01*
X81651Y262787D01*
X81623Y262693D01*
X81590Y262599D01*
X81554Y262507D01*
X81515Y262416D01*
X81471Y262327D01*
X81425Y262240D01*
X81375Y262155D01*
X81321Y262072D01*
X81265Y261990D01*
X81205Y261912D01*
X81142Y261835D01*
X81077Y261761D01*
X81008Y261690D01*
X80937Y261621D01*
X80863Y261556D01*
X80786Y261493D01*
X80708Y261433D01*
X80626Y261377D01*
X80543Y261323D01*
X80458Y261273D01*
X80371Y261227D01*
X80282Y261183D01*
X80191Y261144D01*
X80099Y261108D01*
X80005Y261075D01*
X79911Y261047D01*
X79815Y261022D01*
X79718Y261000D01*
X79621Y260983D01*
X79523Y260969D01*
X79425Y260960D01*
X79326Y260954D01*
X79227Y260952D01*
X79128Y260954D01*
X79029Y260960D01*
X78931Y260969D01*
X78833Y260983D01*
X78736Y261000D01*
X78639Y261022D01*
X78543Y261047D01*
X78449Y261075D01*
X78355Y261108D01*
X78263Y261144D01*
X78172Y261183D01*
X78083Y261227D01*
X77996Y261273D01*
X77911Y261323D01*
X77828Y261377D01*
X77746Y261433D01*
X77668Y261493D01*
X77591Y261556D01*
X77517Y261621D01*
X77446Y261690D01*
X77377Y261761D01*
X77312Y261835D01*
X77249Y261912D01*
X77189Y261990D01*
X77133Y262072D01*
X77079Y262155D01*
X77029Y262240D01*
X76983Y262327D01*
X76939Y262416D01*
X76900Y262507D01*
X76864Y262599D01*
X76831Y262693D01*
X76803Y262787D01*
X76778Y262883D01*
X76756Y262980D01*
X76739Y263077D01*
X76725Y263175D01*
X76716Y263273D01*
X76710Y263372D01*
X76708Y263471D01*
X76708Y266710D01*
X83185Y266710D01*
X83277Y266708D01*
X83368Y266702D01*
X83459Y266693D01*
X83550Y266679D01*
X83640Y266662D01*
X83729Y266640D01*
X83817Y266615D01*
X83904Y266587D01*
X83990Y266554D01*
X84074Y266518D01*
X84157Y266479D01*
X84238Y266436D01*
X84317Y266389D01*
X84394Y266340D01*
X84469Y266287D01*
X84541Y266231D01*
X84611Y266172D01*
X84679Y266110D01*
X84744Y266045D01*
X84806Y265977D01*
X84865Y265907D01*
X84921Y265835D01*
X84974Y265760D01*
X85023Y265683D01*
X85070Y265604D01*
X85113Y265523D01*
X85152Y265440D01*
X85188Y265356D01*
X85221Y265270D01*
X85249Y265183D01*
X85274Y265095D01*
X85296Y265006D01*
X85313Y264916D01*
X85327Y264825D01*
X85336Y264734D01*
X85342Y264643D01*
X85344Y264551D01*
X85344Y261672D01*
X85344Y272749D02*
X76708Y272749D01*
X85344Y272749D02*
X85344Y276348D01*
X85342Y276440D01*
X85336Y276531D01*
X85327Y276622D01*
X85313Y276713D01*
X85296Y276803D01*
X85274Y276892D01*
X85249Y276980D01*
X85221Y277067D01*
X85188Y277153D01*
X85152Y277237D01*
X85113Y277320D01*
X85070Y277401D01*
X85023Y277480D01*
X84974Y277557D01*
X84921Y277632D01*
X84865Y277704D01*
X84806Y277774D01*
X84744Y277842D01*
X84679Y277907D01*
X84611Y277969D01*
X84541Y278028D01*
X84469Y278084D01*
X84394Y278137D01*
X84317Y278186D01*
X84238Y278233D01*
X84157Y278276D01*
X84074Y278315D01*
X83990Y278351D01*
X83904Y278384D01*
X83817Y278412D01*
X83729Y278437D01*
X83640Y278459D01*
X83550Y278476D01*
X83459Y278490D01*
X83368Y278499D01*
X83277Y278505D01*
X83185Y278507D01*
X76708Y278507D01*
X79587Y284065D02*
X82465Y284065D01*
X82571Y284067D01*
X82678Y284073D01*
X82784Y284083D01*
X82889Y284096D01*
X82994Y284114D01*
X83098Y284136D01*
X83202Y284161D01*
X83304Y284190D01*
X83405Y284223D01*
X83505Y284259D01*
X83604Y284300D01*
X83700Y284344D01*
X83796Y284391D01*
X83889Y284442D01*
X83981Y284496D01*
X84070Y284554D01*
X84157Y284615D01*
X84242Y284679D01*
X84325Y284746D01*
X84405Y284816D01*
X84482Y284890D01*
X84556Y284965D01*
X84628Y285044D01*
X84697Y285125D01*
X84762Y285209D01*
X84825Y285295D01*
X84884Y285383D01*
X84940Y285474D01*
X84993Y285566D01*
X85042Y285661D01*
X85088Y285757D01*
X85130Y285855D01*
X85168Y285954D01*
X85203Y286054D01*
X85234Y286156D01*
X85261Y286259D01*
X85285Y286363D01*
X85304Y286467D01*
X85320Y286573D01*
X85332Y286678D01*
X85340Y286784D01*
X85344Y286891D01*
X85344Y286997D01*
X85340Y287104D01*
X85332Y287210D01*
X85320Y287315D01*
X85304Y287421D01*
X85285Y287525D01*
X85261Y287629D01*
X85234Y287732D01*
X85203Y287834D01*
X85168Y287934D01*
X85130Y288033D01*
X85088Y288131D01*
X85042Y288227D01*
X84993Y288322D01*
X84940Y288414D01*
X84884Y288505D01*
X84825Y288593D01*
X84762Y288679D01*
X84697Y288763D01*
X84628Y288844D01*
X84556Y288923D01*
X84482Y288998D01*
X84405Y289072D01*
X84325Y289142D01*
X84242Y289209D01*
X84157Y289273D01*
X84070Y289334D01*
X83981Y289392D01*
X83889Y289446D01*
X83796Y289497D01*
X83700Y289544D01*
X83604Y289588D01*
X83505Y289629D01*
X83405Y289665D01*
X83304Y289698D01*
X83202Y289727D01*
X83098Y289752D01*
X82994Y289774D01*
X82889Y289792D01*
X82784Y289805D01*
X82678Y289815D01*
X82571Y289821D01*
X82465Y289823D01*
X82465Y289822D02*
X79587Y289822D01*
X79587Y289823D02*
X79481Y289821D01*
X79374Y289815D01*
X79268Y289805D01*
X79163Y289792D01*
X79058Y289774D01*
X78954Y289752D01*
X78850Y289727D01*
X78748Y289698D01*
X78647Y289665D01*
X78547Y289629D01*
X78448Y289588D01*
X78352Y289544D01*
X78256Y289497D01*
X78163Y289446D01*
X78071Y289392D01*
X77982Y289334D01*
X77895Y289273D01*
X77810Y289209D01*
X77727Y289142D01*
X77647Y289072D01*
X77570Y288998D01*
X77496Y288923D01*
X77424Y288844D01*
X77355Y288763D01*
X77290Y288679D01*
X77227Y288593D01*
X77168Y288505D01*
X77112Y288414D01*
X77059Y288322D01*
X77010Y288227D01*
X76964Y288131D01*
X76922Y288033D01*
X76884Y287934D01*
X76849Y287834D01*
X76818Y287732D01*
X76791Y287629D01*
X76767Y287525D01*
X76748Y287421D01*
X76732Y287315D01*
X76720Y287210D01*
X76712Y287104D01*
X76708Y286997D01*
X76708Y286891D01*
X76712Y286784D01*
X76720Y286678D01*
X76732Y286573D01*
X76748Y286467D01*
X76767Y286363D01*
X76791Y286259D01*
X76818Y286156D01*
X76849Y286054D01*
X76884Y285954D01*
X76922Y285855D01*
X76964Y285757D01*
X77010Y285661D01*
X77059Y285566D01*
X77112Y285474D01*
X77168Y285383D01*
X77227Y285295D01*
X77290Y285209D01*
X77355Y285125D01*
X77424Y285044D01*
X77496Y284965D01*
X77570Y284890D01*
X77647Y284816D01*
X77727Y284746D01*
X77810Y284679D01*
X77895Y284615D01*
X77982Y284554D01*
X78071Y284496D01*
X78163Y284442D01*
X78256Y284391D01*
X78352Y284344D01*
X78448Y284300D01*
X78547Y284259D01*
X78647Y284223D01*
X78748Y284190D01*
X78850Y284161D01*
X78954Y284136D01*
X79058Y284114D01*
X79163Y284096D01*
X79268Y284083D01*
X79374Y284073D01*
X79481Y284067D01*
X79587Y284065D01*
X76708Y294906D02*
X85344Y294906D01*
X88942Y294547D02*
X89662Y294547D01*
X89662Y295266D01*
X88942Y295266D01*
X88942Y294547D01*
X89662Y305686D02*
X76708Y305686D01*
X76708Y302088D01*
X76710Y301996D01*
X76716Y301905D01*
X76725Y301814D01*
X76739Y301723D01*
X76756Y301633D01*
X76778Y301544D01*
X76803Y301456D01*
X76831Y301369D01*
X76864Y301283D01*
X76900Y301199D01*
X76939Y301116D01*
X76982Y301035D01*
X77029Y300956D01*
X77078Y300879D01*
X77131Y300804D01*
X77187Y300732D01*
X77246Y300662D01*
X77308Y300594D01*
X77373Y300529D01*
X77441Y300467D01*
X77511Y300408D01*
X77583Y300352D01*
X77658Y300299D01*
X77735Y300250D01*
X77814Y300203D01*
X77895Y300160D01*
X77978Y300121D01*
X78062Y300085D01*
X78148Y300052D01*
X78235Y300024D01*
X78323Y299999D01*
X78412Y299977D01*
X78502Y299960D01*
X78593Y299946D01*
X78684Y299937D01*
X78775Y299931D01*
X78867Y299929D01*
X83185Y299929D01*
X83277Y299931D01*
X83368Y299937D01*
X83459Y299946D01*
X83550Y299960D01*
X83640Y299977D01*
X83729Y299999D01*
X83817Y300024D01*
X83904Y300052D01*
X83990Y300085D01*
X84074Y300121D01*
X84157Y300160D01*
X84238Y300203D01*
X84317Y300250D01*
X84394Y300299D01*
X84469Y300352D01*
X84541Y300408D01*
X84611Y300467D01*
X84679Y300529D01*
X84744Y300594D01*
X84806Y300662D01*
X84865Y300732D01*
X84921Y300804D01*
X84974Y300879D01*
X85023Y300956D01*
X85070Y301035D01*
X85113Y301116D01*
X85152Y301199D01*
X85188Y301283D01*
X85221Y301369D01*
X85249Y301456D01*
X85274Y301544D01*
X85296Y301633D01*
X85313Y301723D01*
X85327Y301814D01*
X85336Y301905D01*
X85342Y301996D01*
X85344Y302088D01*
X85344Y305686D01*
X81746Y311543D02*
X81746Y320179D01*
X76708Y324954D02*
X89662Y329272D01*
X76708Y333590D01*
X79947Y332511D02*
X79947Y326034D01*
X76708Y338617D02*
X85344Y338617D01*
X85344Y342935D01*
X83905Y342935D01*
X89662Y352625D02*
X76708Y352625D01*
X76708Y349027D01*
X76710Y348935D01*
X76716Y348844D01*
X76725Y348753D01*
X76739Y348662D01*
X76756Y348572D01*
X76778Y348483D01*
X76803Y348395D01*
X76831Y348308D01*
X76864Y348222D01*
X76900Y348138D01*
X76939Y348055D01*
X76982Y347974D01*
X77029Y347895D01*
X77078Y347818D01*
X77131Y347743D01*
X77187Y347671D01*
X77246Y347601D01*
X77308Y347533D01*
X77373Y347468D01*
X77441Y347406D01*
X77511Y347347D01*
X77583Y347291D01*
X77658Y347238D01*
X77735Y347189D01*
X77814Y347142D01*
X77895Y347099D01*
X77978Y347060D01*
X78062Y347024D01*
X78148Y346991D01*
X78235Y346963D01*
X78323Y346938D01*
X78412Y346916D01*
X78502Y346899D01*
X78593Y346885D01*
X78684Y346876D01*
X78775Y346870D01*
X78867Y346868D01*
X83185Y346868D01*
X83277Y346870D01*
X83368Y346876D01*
X83459Y346885D01*
X83550Y346899D01*
X83640Y346916D01*
X83729Y346938D01*
X83817Y346963D01*
X83904Y346991D01*
X83990Y347024D01*
X84074Y347060D01*
X84157Y347099D01*
X84238Y347142D01*
X84317Y347189D01*
X84394Y347238D01*
X84469Y347291D01*
X84541Y347347D01*
X84611Y347406D01*
X84679Y347468D01*
X84744Y347533D01*
X84806Y347601D01*
X84865Y347671D01*
X84921Y347743D01*
X84974Y347818D01*
X85023Y347895D01*
X85070Y347974D01*
X85113Y348055D01*
X85152Y348138D01*
X85188Y348222D01*
X85221Y348308D01*
X85249Y348395D01*
X85274Y348483D01*
X85296Y348572D01*
X85313Y348662D01*
X85327Y348753D01*
X85336Y348844D01*
X85342Y348935D01*
X85344Y349027D01*
X85344Y352625D01*
X85344Y358664D02*
X78867Y358664D01*
X78775Y358666D01*
X78684Y358672D01*
X78593Y358681D01*
X78502Y358695D01*
X78412Y358712D01*
X78323Y358734D01*
X78235Y358759D01*
X78148Y358787D01*
X78062Y358820D01*
X77978Y358856D01*
X77895Y358895D01*
X77814Y358938D01*
X77735Y358985D01*
X77658Y359034D01*
X77583Y359087D01*
X77511Y359143D01*
X77441Y359202D01*
X77373Y359264D01*
X77308Y359329D01*
X77246Y359397D01*
X77187Y359467D01*
X77131Y359539D01*
X77078Y359614D01*
X77029Y359691D01*
X76982Y359770D01*
X76939Y359851D01*
X76900Y359934D01*
X76864Y360018D01*
X76831Y360104D01*
X76803Y360191D01*
X76778Y360279D01*
X76756Y360368D01*
X76739Y360458D01*
X76725Y360549D01*
X76716Y360640D01*
X76710Y360731D01*
X76708Y360823D01*
X76708Y364422D01*
X85344Y364422D01*
X85344Y369925D02*
X76708Y369925D01*
X88942Y369565D02*
X89662Y369565D01*
X89662Y370285D01*
X88942Y370285D01*
X88942Y369565D01*
X85344Y375428D02*
X76708Y375428D01*
X85344Y375428D02*
X85344Y379027D01*
X85342Y379119D01*
X85336Y379210D01*
X85327Y379301D01*
X85313Y379392D01*
X85296Y379482D01*
X85274Y379571D01*
X85249Y379659D01*
X85221Y379746D01*
X85188Y379832D01*
X85152Y379916D01*
X85113Y379999D01*
X85070Y380080D01*
X85023Y380159D01*
X84974Y380236D01*
X84921Y380311D01*
X84865Y380383D01*
X84806Y380453D01*
X84744Y380521D01*
X84679Y380586D01*
X84611Y380648D01*
X84541Y380707D01*
X84469Y380763D01*
X84394Y380816D01*
X84317Y380865D01*
X84238Y380912D01*
X84157Y380955D01*
X84074Y380994D01*
X83990Y381030D01*
X83904Y381063D01*
X83817Y381091D01*
X83729Y381116D01*
X83640Y381138D01*
X83550Y381155D01*
X83459Y381169D01*
X83368Y381178D01*
X83277Y381184D01*
X83185Y381186D01*
X76708Y381186D01*
X79587Y386744D02*
X82465Y386744D01*
X82571Y386746D01*
X82678Y386752D01*
X82784Y386762D01*
X82889Y386775D01*
X82994Y386793D01*
X83098Y386815D01*
X83202Y386840D01*
X83304Y386869D01*
X83405Y386902D01*
X83505Y386938D01*
X83604Y386979D01*
X83700Y387023D01*
X83796Y387070D01*
X83889Y387121D01*
X83981Y387175D01*
X84070Y387233D01*
X84157Y387294D01*
X84242Y387358D01*
X84325Y387425D01*
X84405Y387495D01*
X84482Y387569D01*
X84556Y387644D01*
X84628Y387723D01*
X84697Y387804D01*
X84762Y387888D01*
X84825Y387974D01*
X84884Y388062D01*
X84940Y388153D01*
X84993Y388245D01*
X85042Y388340D01*
X85088Y388436D01*
X85130Y388534D01*
X85168Y388633D01*
X85203Y388733D01*
X85234Y388835D01*
X85261Y388938D01*
X85285Y389042D01*
X85304Y389146D01*
X85320Y389252D01*
X85332Y389357D01*
X85340Y389463D01*
X85344Y389570D01*
X85344Y389676D01*
X85340Y389783D01*
X85332Y389889D01*
X85320Y389994D01*
X85304Y390100D01*
X85285Y390204D01*
X85261Y390308D01*
X85234Y390411D01*
X85203Y390513D01*
X85168Y390613D01*
X85130Y390712D01*
X85088Y390810D01*
X85042Y390906D01*
X84993Y391001D01*
X84940Y391093D01*
X84884Y391184D01*
X84825Y391272D01*
X84762Y391358D01*
X84697Y391442D01*
X84628Y391523D01*
X84556Y391602D01*
X84482Y391677D01*
X84405Y391751D01*
X84325Y391821D01*
X84242Y391888D01*
X84157Y391952D01*
X84070Y392013D01*
X83981Y392071D01*
X83889Y392125D01*
X83796Y392176D01*
X83700Y392223D01*
X83604Y392267D01*
X83505Y392308D01*
X83405Y392344D01*
X83304Y392377D01*
X83202Y392406D01*
X83098Y392431D01*
X82994Y392453D01*
X82889Y392471D01*
X82784Y392484D01*
X82678Y392494D01*
X82571Y392500D01*
X82465Y392502D01*
X82465Y392501D02*
X79587Y392501D01*
X79587Y392502D02*
X79481Y392500D01*
X79374Y392494D01*
X79268Y392484D01*
X79163Y392471D01*
X79058Y392453D01*
X78954Y392431D01*
X78850Y392406D01*
X78748Y392377D01*
X78647Y392344D01*
X78547Y392308D01*
X78448Y392267D01*
X78352Y392223D01*
X78256Y392176D01*
X78163Y392125D01*
X78071Y392071D01*
X77982Y392013D01*
X77895Y391952D01*
X77810Y391888D01*
X77727Y391821D01*
X77647Y391751D01*
X77570Y391677D01*
X77496Y391602D01*
X77424Y391523D01*
X77355Y391442D01*
X77290Y391358D01*
X77227Y391272D01*
X77168Y391184D01*
X77112Y391093D01*
X77059Y391001D01*
X77010Y390906D01*
X76964Y390810D01*
X76922Y390712D01*
X76884Y390613D01*
X76849Y390513D01*
X76818Y390411D01*
X76791Y390308D01*
X76767Y390204D01*
X76748Y390100D01*
X76732Y389994D01*
X76720Y389889D01*
X76712Y389783D01*
X76708Y389676D01*
X76708Y389570D01*
X76712Y389463D01*
X76720Y389357D01*
X76732Y389252D01*
X76748Y389146D01*
X76767Y389042D01*
X76791Y388938D01*
X76818Y388835D01*
X76849Y388733D01*
X76884Y388633D01*
X76922Y388534D01*
X76964Y388436D01*
X77010Y388340D01*
X77059Y388245D01*
X77112Y388153D01*
X77168Y388062D01*
X77227Y387974D01*
X77290Y387888D01*
X77355Y387804D01*
X77424Y387723D01*
X77496Y387644D01*
X77570Y387569D01*
X77647Y387495D01*
X77727Y387425D01*
X77810Y387358D01*
X77895Y387294D01*
X77982Y387233D01*
X78071Y387175D01*
X78163Y387121D01*
X78256Y387070D01*
X78352Y387023D01*
X78448Y386979D01*
X78547Y386938D01*
X78647Y386902D01*
X78748Y386869D01*
X78850Y386840D01*
X78954Y386815D01*
X79058Y386793D01*
X79163Y386775D01*
X79268Y386762D01*
X79374Y386752D01*
X79481Y386746D01*
X79587Y386744D01*
X76708Y401658D02*
X76710Y401763D01*
X76716Y401868D01*
X76725Y401973D01*
X76739Y402077D01*
X76756Y402181D01*
X76777Y402284D01*
X76802Y402386D01*
X76830Y402487D01*
X76862Y402588D01*
X76898Y402686D01*
X76937Y402784D01*
X76980Y402880D01*
X77027Y402974D01*
X77076Y403067D01*
X77130Y403158D01*
X77186Y403247D01*
X77246Y403333D01*
X77308Y403418D01*
X77374Y403500D01*
X77443Y403579D01*
X77514Y403656D01*
X77589Y403731D01*
X77666Y403802D01*
X77745Y403871D01*
X77827Y403937D01*
X77912Y403999D01*
X77998Y404059D01*
X78087Y404116D01*
X78178Y404169D01*
X78271Y404218D01*
X78365Y404265D01*
X78461Y404308D01*
X78559Y404347D01*
X78657Y404383D01*
X78758Y404415D01*
X78859Y404443D01*
X78961Y404468D01*
X79064Y404489D01*
X79168Y404506D01*
X79272Y404520D01*
X79377Y404529D01*
X79482Y404535D01*
X79587Y404537D01*
X76708Y401658D02*
X76710Y401503D01*
X76716Y401348D01*
X76726Y401194D01*
X76740Y401040D01*
X76757Y400886D01*
X76779Y400732D01*
X76804Y400580D01*
X76834Y400428D01*
X76867Y400276D01*
X76904Y400126D01*
X76945Y399976D01*
X76990Y399828D01*
X77038Y399681D01*
X77091Y399535D01*
X77146Y399391D01*
X77206Y399248D01*
X77269Y399106D01*
X77336Y398967D01*
X77406Y398829D01*
X77480Y398693D01*
X77557Y398558D01*
X77638Y398426D01*
X77722Y398296D01*
X77809Y398168D01*
X77900Y398042D01*
X77993Y397919D01*
X78090Y397798D01*
X78190Y397680D01*
X78293Y397564D01*
X78399Y397451D01*
X78507Y397340D01*
X86783Y397699D02*
X86888Y397701D01*
X86993Y397707D01*
X87098Y397716D01*
X87202Y397730D01*
X87306Y397747D01*
X87409Y397768D01*
X87511Y397793D01*
X87612Y397821D01*
X87713Y397853D01*
X87811Y397889D01*
X87909Y397928D01*
X88005Y397971D01*
X88099Y398018D01*
X88192Y398067D01*
X88283Y398121D01*
X88372Y398177D01*
X88458Y398237D01*
X88543Y398299D01*
X88625Y398365D01*
X88704Y398434D01*
X88781Y398505D01*
X88856Y398580D01*
X88927Y398657D01*
X88996Y398736D01*
X89062Y398818D01*
X89124Y398903D01*
X89184Y398989D01*
X89240Y399078D01*
X89294Y399169D01*
X89343Y399262D01*
X89390Y399356D01*
X89433Y399452D01*
X89472Y399550D01*
X89508Y399648D01*
X89540Y399749D01*
X89568Y399850D01*
X89593Y399952D01*
X89614Y400055D01*
X89631Y400159D01*
X89645Y400263D01*
X89654Y400368D01*
X89660Y400473D01*
X89662Y400578D01*
X89663Y400578D02*
X89661Y400723D01*
X89655Y400867D01*
X89646Y401012D01*
X89632Y401156D01*
X89615Y401300D01*
X89593Y401443D01*
X89568Y401585D01*
X89539Y401727D01*
X89507Y401868D01*
X89470Y402008D01*
X89430Y402147D01*
X89386Y402285D01*
X89338Y402422D01*
X89287Y402557D01*
X89232Y402691D01*
X89174Y402823D01*
X89112Y402954D01*
X89046Y403083D01*
X88978Y403211D01*
X88905Y403336D01*
X88830Y403459D01*
X88751Y403581D01*
X88669Y403700D01*
X88583Y403817D01*
X84264Y399139D02*
X84319Y399049D01*
X84377Y398962D01*
X84437Y398877D01*
X84501Y398794D01*
X84568Y398714D01*
X84638Y398636D01*
X84711Y398560D01*
X84786Y398487D01*
X84864Y398417D01*
X84944Y398350D01*
X85026Y398285D01*
X85111Y398224D01*
X85198Y398166D01*
X85287Y398111D01*
X85378Y398059D01*
X85471Y398010D01*
X85565Y397965D01*
X85661Y397923D01*
X85758Y397884D01*
X85857Y397849D01*
X85957Y397818D01*
X86058Y397790D01*
X86160Y397766D01*
X86262Y397746D01*
X86366Y397729D01*
X86470Y397716D01*
X86574Y397706D01*
X86678Y397701D01*
X86783Y397699D01*
X82106Y403097D02*
X82051Y403187D01*
X81993Y403274D01*
X81932Y403359D01*
X81868Y403442D01*
X81802Y403522D01*
X81732Y403600D01*
X81659Y403676D01*
X81584Y403749D01*
X81506Y403819D01*
X81426Y403886D01*
X81344Y403951D01*
X81259Y404012D01*
X81172Y404070D01*
X81083Y404125D01*
X80992Y404177D01*
X80899Y404226D01*
X80805Y404271D01*
X80709Y404313D01*
X80612Y404352D01*
X80513Y404387D01*
X80413Y404418D01*
X80312Y404446D01*
X80210Y404470D01*
X80108Y404490D01*
X80004Y404507D01*
X79900Y404520D01*
X79796Y404530D01*
X79692Y404535D01*
X79587Y404537D01*
X82106Y403097D02*
X84265Y399139D01*
X89662Y409794D02*
X76708Y409794D01*
X85344Y409794D02*
X85344Y413393D01*
X85342Y413485D01*
X85336Y413576D01*
X85327Y413667D01*
X85313Y413758D01*
X85296Y413848D01*
X85274Y413937D01*
X85249Y414025D01*
X85221Y414112D01*
X85188Y414198D01*
X85152Y414282D01*
X85113Y414365D01*
X85070Y414446D01*
X85023Y414525D01*
X84974Y414602D01*
X84921Y414677D01*
X84865Y414749D01*
X84806Y414819D01*
X84744Y414887D01*
X84679Y414952D01*
X84611Y415014D01*
X84541Y415073D01*
X84469Y415129D01*
X84394Y415182D01*
X84317Y415231D01*
X84238Y415278D01*
X84157Y415321D01*
X84074Y415360D01*
X83990Y415396D01*
X83904Y415429D01*
X83817Y415457D01*
X83729Y415482D01*
X83640Y415504D01*
X83550Y415521D01*
X83459Y415535D01*
X83368Y415544D01*
X83277Y415550D01*
X83185Y415552D01*
X76708Y415552D01*
X76708Y421055D02*
X85344Y421055D01*
X88942Y420695D02*
X89662Y420695D01*
X89662Y421415D01*
X88942Y421415D01*
X88942Y420695D01*
X76708Y428298D02*
X76708Y431897D01*
X76708Y428298D02*
X76710Y428206D01*
X76716Y428115D01*
X76725Y428024D01*
X76739Y427933D01*
X76756Y427843D01*
X76778Y427754D01*
X76803Y427666D01*
X76831Y427579D01*
X76864Y427493D01*
X76900Y427409D01*
X76939Y427326D01*
X76982Y427245D01*
X77029Y427166D01*
X77078Y427089D01*
X77131Y427014D01*
X77187Y426942D01*
X77246Y426872D01*
X77308Y426804D01*
X77373Y426739D01*
X77441Y426677D01*
X77511Y426618D01*
X77583Y426562D01*
X77658Y426509D01*
X77735Y426460D01*
X77814Y426413D01*
X77895Y426370D01*
X77978Y426331D01*
X78062Y426295D01*
X78148Y426262D01*
X78235Y426234D01*
X78323Y426209D01*
X78412Y426187D01*
X78502Y426170D01*
X78593Y426156D01*
X78684Y426147D01*
X78775Y426141D01*
X78867Y426139D01*
X82465Y426139D01*
X82571Y426141D01*
X82678Y426147D01*
X82784Y426157D01*
X82889Y426170D01*
X82994Y426188D01*
X83098Y426210D01*
X83202Y426235D01*
X83304Y426264D01*
X83405Y426297D01*
X83505Y426333D01*
X83604Y426374D01*
X83700Y426418D01*
X83796Y426465D01*
X83889Y426516D01*
X83981Y426570D01*
X84070Y426628D01*
X84157Y426689D01*
X84242Y426753D01*
X84325Y426820D01*
X84405Y426890D01*
X84482Y426964D01*
X84556Y427039D01*
X84628Y427118D01*
X84697Y427199D01*
X84762Y427283D01*
X84825Y427369D01*
X84884Y427457D01*
X84940Y427548D01*
X84993Y427640D01*
X85042Y427735D01*
X85088Y427831D01*
X85130Y427929D01*
X85168Y428028D01*
X85203Y428128D01*
X85234Y428230D01*
X85261Y428333D01*
X85285Y428437D01*
X85304Y428541D01*
X85320Y428647D01*
X85332Y428752D01*
X85340Y428858D01*
X85344Y428965D01*
X85344Y429071D01*
X85340Y429178D01*
X85332Y429284D01*
X85320Y429389D01*
X85304Y429495D01*
X85285Y429599D01*
X85261Y429703D01*
X85234Y429806D01*
X85203Y429908D01*
X85168Y430008D01*
X85130Y430107D01*
X85088Y430205D01*
X85042Y430301D01*
X84993Y430396D01*
X84940Y430488D01*
X84884Y430579D01*
X84825Y430667D01*
X84762Y430753D01*
X84697Y430837D01*
X84628Y430918D01*
X84556Y430997D01*
X84482Y431072D01*
X84405Y431146D01*
X84325Y431216D01*
X84242Y431283D01*
X84157Y431347D01*
X84070Y431408D01*
X83981Y431466D01*
X83889Y431520D01*
X83796Y431571D01*
X83700Y431618D01*
X83604Y431662D01*
X83505Y431703D01*
X83405Y431739D01*
X83304Y431772D01*
X83202Y431801D01*
X83098Y431826D01*
X82994Y431848D01*
X82889Y431866D01*
X82784Y431879D01*
X82678Y431889D01*
X82571Y431895D01*
X82465Y431897D01*
X81026Y431897D01*
X81026Y426139D01*
X78867Y437212D02*
X89662Y437212D01*
X78867Y437212D02*
X78775Y437214D01*
X78684Y437220D01*
X78593Y437229D01*
X78502Y437243D01*
X78412Y437260D01*
X78323Y437282D01*
X78235Y437307D01*
X78148Y437335D01*
X78062Y437368D01*
X77978Y437404D01*
X77895Y437443D01*
X77814Y437486D01*
X77735Y437533D01*
X77658Y437582D01*
X77583Y437635D01*
X77511Y437691D01*
X77441Y437750D01*
X77373Y437812D01*
X77308Y437877D01*
X77246Y437945D01*
X77187Y438015D01*
X77131Y438087D01*
X77078Y438162D01*
X77029Y438239D01*
X76982Y438318D01*
X76939Y438399D01*
X76900Y438482D01*
X76864Y438566D01*
X76831Y438652D01*
X76803Y438739D01*
X76778Y438827D01*
X76756Y438916D01*
X76739Y439006D01*
X76725Y439097D01*
X76716Y439188D01*
X76710Y439279D01*
X76708Y439371D01*
X76708Y449437D02*
X89662Y449437D01*
X76708Y449437D02*
X76708Y445838D01*
X76710Y445746D01*
X76716Y445655D01*
X76725Y445564D01*
X76739Y445473D01*
X76756Y445383D01*
X76778Y445294D01*
X76803Y445206D01*
X76831Y445119D01*
X76864Y445033D01*
X76900Y444949D01*
X76939Y444866D01*
X76982Y444785D01*
X77029Y444706D01*
X77078Y444629D01*
X77131Y444554D01*
X77187Y444482D01*
X77246Y444412D01*
X77308Y444344D01*
X77373Y444279D01*
X77441Y444217D01*
X77511Y444158D01*
X77583Y444102D01*
X77658Y444049D01*
X77735Y444000D01*
X77814Y443953D01*
X77895Y443910D01*
X77978Y443871D01*
X78062Y443835D01*
X78148Y443802D01*
X78235Y443774D01*
X78323Y443749D01*
X78412Y443727D01*
X78502Y443710D01*
X78593Y443696D01*
X78684Y443687D01*
X78775Y443681D01*
X78867Y443679D01*
X83185Y443679D01*
X83277Y443681D01*
X83368Y443687D01*
X83459Y443696D01*
X83550Y443710D01*
X83640Y443727D01*
X83729Y443749D01*
X83817Y443774D01*
X83904Y443802D01*
X83990Y443835D01*
X84074Y443871D01*
X84157Y443910D01*
X84238Y443953D01*
X84317Y444000D01*
X84394Y444049D01*
X84469Y444102D01*
X84541Y444158D01*
X84611Y444217D01*
X84679Y444279D01*
X84744Y444344D01*
X84806Y444412D01*
X84865Y444482D01*
X84921Y444554D01*
X84974Y444629D01*
X85023Y444706D01*
X85070Y444785D01*
X85113Y444866D01*
X85152Y444949D01*
X85188Y445033D01*
X85221Y445119D01*
X85249Y445206D01*
X85274Y445294D01*
X85296Y445383D01*
X85313Y445473D01*
X85327Y445564D01*
X85336Y445655D01*
X85342Y445746D01*
X85344Y445838D01*
X85344Y449437D01*
X85344Y454638D02*
X76708Y457517D01*
X85344Y460395D01*
X86783Y465234D02*
X89662Y468832D01*
X76708Y468832D01*
X76708Y465234D02*
X76708Y472431D01*
X76708Y477273D02*
X77428Y477273D01*
X77428Y477993D01*
X76708Y477993D01*
X76708Y477273D01*
X76708Y482836D02*
X76708Y486434D01*
X76710Y486553D01*
X76716Y486672D01*
X76726Y486790D01*
X76739Y486909D01*
X76757Y487026D01*
X76779Y487143D01*
X76804Y487259D01*
X76833Y487375D01*
X76866Y487489D01*
X76903Y487602D01*
X76943Y487714D01*
X76988Y487825D01*
X77035Y487934D01*
X77087Y488041D01*
X77142Y488146D01*
X77200Y488250D01*
X77262Y488352D01*
X77327Y488451D01*
X77395Y488549D01*
X77467Y488644D01*
X77541Y488737D01*
X77619Y488827D01*
X77700Y488914D01*
X77783Y488999D01*
X77869Y489081D01*
X77958Y489160D01*
X78049Y489236D01*
X78143Y489309D01*
X78240Y489379D01*
X78338Y489446D01*
X78439Y489510D01*
X78541Y489570D01*
X78646Y489626D01*
X78753Y489679D01*
X78861Y489729D01*
X78970Y489775D01*
X79082Y489817D01*
X79194Y489856D01*
X79308Y489891D01*
X79423Y489922D01*
X79539Y489949D01*
X79655Y489973D01*
X79773Y489992D01*
X79890Y490008D01*
X80009Y490020D01*
X80128Y490028D01*
X80247Y490032D01*
X80365Y490032D01*
X80484Y490028D01*
X80603Y490020D01*
X80722Y490008D01*
X80839Y489992D01*
X80957Y489973D01*
X81073Y489949D01*
X81189Y489922D01*
X81304Y489891D01*
X81418Y489856D01*
X81530Y489817D01*
X81642Y489775D01*
X81751Y489729D01*
X81859Y489679D01*
X81966Y489626D01*
X82071Y489570D01*
X82173Y489510D01*
X82274Y489446D01*
X82372Y489379D01*
X82469Y489309D01*
X82563Y489236D01*
X82654Y489160D01*
X82743Y489081D01*
X82829Y488999D01*
X82912Y488914D01*
X82993Y488827D01*
X83071Y488737D01*
X83145Y488644D01*
X83217Y488549D01*
X83285Y488451D01*
X83350Y488352D01*
X83412Y488250D01*
X83470Y488146D01*
X83525Y488041D01*
X83577Y487934D01*
X83624Y487825D01*
X83669Y487714D01*
X83709Y487602D01*
X83746Y487489D01*
X83779Y487375D01*
X83808Y487259D01*
X83833Y487143D01*
X83855Y487026D01*
X83873Y486909D01*
X83886Y486790D01*
X83896Y486672D01*
X83902Y486553D01*
X83904Y486434D01*
X89662Y487154D02*
X89662Y482836D01*
X89662Y487154D02*
X89660Y487260D01*
X89654Y487367D01*
X89644Y487473D01*
X89631Y487578D01*
X89613Y487683D01*
X89591Y487787D01*
X89566Y487891D01*
X89537Y487993D01*
X89504Y488094D01*
X89468Y488194D01*
X89427Y488293D01*
X89383Y488389D01*
X89336Y488485D01*
X89285Y488578D01*
X89231Y488670D01*
X89173Y488759D01*
X89112Y488846D01*
X89048Y488931D01*
X88981Y489014D01*
X88911Y489094D01*
X88837Y489171D01*
X88762Y489245D01*
X88683Y489317D01*
X88602Y489386D01*
X88518Y489451D01*
X88432Y489514D01*
X88344Y489573D01*
X88253Y489629D01*
X88161Y489682D01*
X88066Y489731D01*
X87970Y489777D01*
X87872Y489819D01*
X87773Y489857D01*
X87673Y489892D01*
X87571Y489923D01*
X87468Y489950D01*
X87364Y489974D01*
X87260Y489993D01*
X87154Y490009D01*
X87049Y490021D01*
X86943Y490029D01*
X86836Y490033D01*
X86730Y490033D01*
X86623Y490029D01*
X86517Y490021D01*
X86412Y490009D01*
X86306Y489993D01*
X86202Y489974D01*
X86098Y489950D01*
X85995Y489923D01*
X85893Y489892D01*
X85793Y489857D01*
X85694Y489819D01*
X85596Y489777D01*
X85500Y489731D01*
X85405Y489682D01*
X85313Y489629D01*
X85222Y489573D01*
X85134Y489514D01*
X85048Y489451D01*
X84964Y489386D01*
X84883Y489317D01*
X84804Y489245D01*
X84729Y489171D01*
X84655Y489094D01*
X84585Y489014D01*
X84518Y488931D01*
X84454Y488846D01*
X84393Y488759D01*
X84335Y488670D01*
X84281Y488578D01*
X84230Y488485D01*
X84183Y488389D01*
X84139Y488293D01*
X84098Y488194D01*
X84062Y488094D01*
X84029Y487993D01*
X84000Y487891D01*
X83975Y487787D01*
X83953Y487683D01*
X83935Y487578D01*
X83922Y487473D01*
X83912Y487367D01*
X83906Y487260D01*
X83904Y487154D01*
X83905Y487154D02*
X83905Y484275D01*
D11*
X444500Y292100D03*
X444500Y393700D03*
X381000Y317500D03*
X279400Y317500D03*
D12*
X139700Y266700D03*
X139700Y215900D03*
X139700Y152400D03*
X190500Y152400D03*
D13*
X533400Y182880D02*
X533400Y198120D01*
X508000Y198120D02*
X508000Y182880D01*
X482600Y182880D02*
X482600Y198120D01*
X457200Y198120D02*
X457200Y182880D01*
X238760Y500380D02*
X238760Y515620D01*
X264160Y515620D02*
X264160Y500380D01*
X289560Y500380D02*
X289560Y515620D01*
X314960Y515620D02*
X314960Y500380D01*
X340360Y500380D02*
X340360Y515620D01*
X365760Y515620D02*
X365760Y500380D01*
X391160Y500380D02*
X391160Y515620D01*
X416560Y515620D02*
X416560Y500380D01*
X457200Y500380D02*
X457200Y515620D01*
X482600Y515620D02*
X482600Y500380D01*
X508000Y500380D02*
X508000Y515620D01*
X533400Y515620D02*
X533400Y500380D01*
X558800Y500380D02*
X558800Y515620D01*
X584200Y515620D02*
X584200Y500380D01*
X609600Y500380D02*
X609600Y515620D01*
X635000Y515620D02*
X635000Y500380D01*
X330200Y33020D02*
X330200Y17780D01*
X355600Y17780D02*
X355600Y33020D01*
X381000Y33020D02*
X381000Y17780D01*
X406400Y17780D02*
X406400Y33020D01*
X431800Y33020D02*
X431800Y17780D01*
X457200Y17780D02*
X457200Y33020D01*
X508000Y33020D02*
X508000Y17780D01*
X533400Y17780D02*
X533400Y33020D01*
X558800Y33020D02*
X558800Y17780D01*
X584200Y17780D02*
X584200Y33020D01*
X609600Y33020D02*
X609600Y17780D01*
X635000Y17780D02*
X635000Y33020D01*
X58420Y152400D02*
X43180Y152400D01*
X43180Y177800D02*
X58420Y177800D01*
X58420Y203200D02*
X43180Y203200D01*
X43180Y50800D02*
X58420Y50800D01*
X58420Y76200D02*
X43180Y76200D01*
X43180Y101600D02*
X58420Y101600D01*
X165100Y71120D02*
X165100Y55880D01*
X139700Y55880D02*
X139700Y71120D01*
X114300Y71120D02*
X114300Y55880D01*
X266700Y55880D02*
X266700Y71120D01*
X241300Y71120D02*
X241300Y55880D01*
X215900Y55880D02*
X215900Y71120D01*
D14*
X266700Y114300D03*
D15*
X292100Y114300D03*
D14*
X368300Y254000D03*
D15*
X393700Y254000D03*
D14*
X279400Y215900D03*
D15*
X304800Y215900D03*
D16*
X330200Y165100D03*
D12*
X190500Y469900D03*
D17*
X241300Y304800D03*
X241300Y203200D03*
D18*
X419100Y419100D03*
X317500Y419100D03*
D17*
X190500Y304800D03*
X190500Y203200D03*
D13*
X241300Y347980D02*
X241300Y363220D01*
X266700Y363220D02*
X266700Y347980D01*
X558800Y449580D02*
X558800Y464820D01*
X533400Y464820D02*
X533400Y449580D01*
X508000Y449580D02*
X508000Y464820D01*
X482600Y464820D02*
X482600Y449580D01*
X596900Y210820D02*
X596900Y195580D01*
X622300Y195580D02*
X622300Y210820D01*
X647700Y210820D02*
X647700Y195580D01*
X546100Y373380D02*
X546100Y388620D01*
X571500Y388620D02*
X571500Y373380D01*
X596900Y373380D02*
X596900Y388620D01*
X279400Y436880D02*
X279400Y452120D01*
X254000Y452120D02*
X254000Y436880D01*
X228600Y436880D02*
X228600Y452120D01*
D19*
X469900Y241300D03*
X508000Y304800D03*
X584200Y279400D03*
X635000Y266700D03*
D13*
X355600Y198120D02*
X355600Y182880D01*
X381000Y182880D02*
X381000Y198120D01*
X406400Y198120D02*
X406400Y182880D01*
X114300Y500380D02*
X114300Y515620D01*
X88900Y515620D02*
X88900Y500380D01*
X63500Y500380D02*
X63500Y515620D01*
D20*
X381000Y190500D02*
X381000Y25400D01*
D21*
X534416Y191008D02*
X558800Y191008D01*
X633984Y266192D01*
X534416Y191008D02*
X533400Y190500D01*
X633984Y266192D02*
X635000Y266700D01*
X546608Y355600D02*
X546608Y379984D01*
X546608Y355600D02*
X633984Y268224D01*
X546608Y379984D02*
X546100Y381000D01*
X633984Y268224D02*
X635000Y266700D01*
X306832Y369824D02*
X241808Y304800D01*
X306832Y369824D02*
X306832Y422656D01*
X373888Y489712D01*
X438912Y489712D01*
X457200Y508000D01*
X241808Y304800D02*
X241300Y304800D01*
X319024Y302260D02*
X319024Y418592D01*
X319024Y302260D02*
X367284Y254000D01*
X319024Y418592D02*
X317500Y419100D01*
X367284Y254000D02*
X368300Y254000D01*
X50800Y177800D02*
X50800Y176784D01*
D20*
X27375Y153359D01*
X50800Y78175D02*
X50800Y76200D01*
X50800Y78175D02*
X27375Y101600D01*
X27375Y153359D01*
D21*
X38608Y65024D02*
X113792Y65024D01*
X114300Y63500D01*
X135636Y84836D01*
D22*
X438912Y132588D03*
D20*
X457200Y101600D02*
X457200Y25400D01*
X457200Y101600D02*
X438912Y119888D01*
X438912Y132588D01*
X330200Y165100D02*
X314960Y149860D01*
X314960Y84836D01*
X135636Y84836D01*
X115824Y65024D01*
X113792Y65024D01*
X112776Y65024D02*
X114300Y63500D01*
X112776Y65024D02*
X38608Y65024D01*
X38551Y65024D01*
X32004Y71571D01*
X32004Y71628D01*
X12700Y90932D02*
X12700Y165100D01*
X12700Y90932D02*
X32004Y71628D01*
X12700Y165100D02*
X50800Y203200D01*
D21*
X215392Y101600D02*
X241300Y101600D01*
X215392Y101600D02*
X50800Y101600D01*
X418084Y154940D02*
X418084Y39116D01*
X418084Y154940D02*
X392176Y180848D01*
X392176Y217424D01*
X393700Y254000D01*
X418084Y39116D02*
X431800Y25400D01*
X128524Y394208D02*
X128524Y469900D01*
X128524Y394208D02*
X306832Y215900D01*
X128524Y469900D02*
X114300Y469900D01*
X215392Y101600D02*
X215392Y99568D01*
D22*
X215392Y99568D03*
D20*
X241300Y101600D02*
X278384Y101600D01*
X291084Y114300D01*
X292100Y114300D01*
X241300Y101600D02*
X50800Y101600D01*
D21*
X114300Y469900D02*
X114300Y508000D01*
X304800Y215900D02*
X306832Y215900D01*
M02*
