M48
;GenerationSoftware,Autodesk,EAGLE,9.1.3*%
;CreationDate,2018-09-14T18:40:43Z*%
FMAT,2
ICI,OFF
METRIC,TZ,000.000
T7C0.500
T6C0.813
T5C1.016
T4C1.118
T3C1.321
T2C2.000
T1C3.200
%
G90
M71
T1
X15240Y50800
X66040Y35560
X66040Y7620
T2
X55170Y27114
T3
X13970Y15240
X19050Y46990
X13970Y26670
X13970Y21590
X33020Y16510
X19050Y15240
T4
X44450Y29210
X44450Y39370
X38100Y31750
X27940Y31750
T5
X39116Y50800
X53340Y19050
X50800Y19050
X48260Y19050
X45720Y19050
X23876Y50800
X26416Y50800
X28956Y50800
X31496Y50800
X34036Y50800
X36576Y50800
X41656Y50800
X45720Y50800
X48260Y50800
X50800Y50800
X53340Y50800
X55880Y50800
X58420Y50800
X60960Y50800
X63500Y50800
X33020Y2540
X35560Y2540
X38100Y2540
X40640Y2540
X43180Y2540
X45720Y2540
X50800Y2540
X53340Y2540
X55880Y2540
X58420Y2540
X60960Y2540
X63500Y2540
X5080Y15240
X5080Y17780
X5080Y20320
X5080Y5080
X5080Y7620
X5080Y10160
X16510Y6350
X13970Y6350
X11430Y6350
X26670Y6350
X24130Y6350
X21590Y6350
X24130Y35560
X26670Y35560
X55880Y45720
X53340Y45720
X50800Y45720
X48260Y45720
X59690Y20320
X62230Y20320
X64770Y20320
X54610Y38100
X57150Y38100
X59690Y38100
X27940Y44450
X25400Y44450
X22860Y44450
X46990Y24130
X50800Y30480
X58420Y27940
X63500Y26670
X35560Y19050
X38100Y19050
X40640Y19050
X11430Y50800
X8890Y50800
X6350Y50800
T6
X31750Y41910
X19050Y30480
X19050Y20320
X26670Y11430
X29210Y11430
X36830Y25400
X39370Y25400
X27940Y21590
X30480Y21590
X24130Y30480
X24130Y20320
X41910Y41910
T7
X43891Y13259
X21539Y9957
M30