G04 EAGLE Gerber X2 export*
%TF.Part,Single*%
%TF.FileFunction,Profile,NP*%
%TF.FilePolarity,Positive*%
%TF.GenerationSoftware,Autodesk,EAGLE,9.1.3*%
%TF.CreationDate,2018-09-14T18:40:43Z*%
G75*
%MOMM*%
%FSLAX34Y34*%
%LPD*%
%AMOC8*
5,1,8,0,0,1.08239X$1,22.5*%
G01*
%ADD10C,0.254000*%


D10*
X0Y0D02*
X698300Y0D01*
X698300Y542800D01*
X0Y542800D01*
X0Y0D01*
X168400Y507476D02*
X168332Y506431D01*
X168195Y505392D01*
X167990Y504365D01*
X167719Y503353D01*
X167383Y502361D01*
X166982Y501393D01*
X166518Y500454D01*
X165995Y499546D01*
X165413Y498675D01*
X164775Y497844D01*
X164084Y497057D01*
X163343Y496316D01*
X162556Y495625D01*
X161725Y494988D01*
X160854Y494406D01*
X159946Y493882D01*
X159007Y493418D01*
X158039Y493017D01*
X157047Y492681D01*
X156035Y492410D01*
X155008Y492205D01*
X153969Y492069D01*
X152924Y492000D01*
X151876Y492000D01*
X150831Y492069D01*
X149792Y492205D01*
X148765Y492410D01*
X147753Y492681D01*
X146761Y493017D01*
X145793Y493418D01*
X144854Y493882D01*
X143946Y494406D01*
X143075Y494988D01*
X142244Y495625D01*
X141457Y496316D01*
X140716Y497057D01*
X140025Y497844D01*
X139388Y498675D01*
X138806Y499546D01*
X138282Y500454D01*
X137818Y501393D01*
X137417Y502361D01*
X137081Y503353D01*
X136810Y504365D01*
X136605Y505392D01*
X136469Y506431D01*
X136400Y507476D01*
X136400Y508524D01*
X136469Y509569D01*
X136605Y510608D01*
X136810Y511635D01*
X137081Y512647D01*
X137417Y513639D01*
X137818Y514607D01*
X138282Y515546D01*
X138806Y516454D01*
X139388Y517325D01*
X140025Y518156D01*
X140716Y518943D01*
X141457Y519684D01*
X142244Y520375D01*
X143075Y521013D01*
X143946Y521595D01*
X144854Y522118D01*
X145793Y522582D01*
X146761Y522983D01*
X147753Y523319D01*
X148765Y523590D01*
X149792Y523795D01*
X150831Y523932D01*
X151876Y524000D01*
X152924Y524000D01*
X153969Y523932D01*
X155008Y523795D01*
X156035Y523590D01*
X157047Y523319D01*
X158039Y522983D01*
X159007Y522582D01*
X159946Y522118D01*
X160854Y521595D01*
X161725Y521013D01*
X162556Y520375D01*
X163343Y519684D01*
X164084Y518943D01*
X164775Y518156D01*
X165413Y517325D01*
X165995Y516454D01*
X166518Y515546D01*
X166982Y514607D01*
X167383Y513639D01*
X167719Y512647D01*
X167990Y511635D01*
X168195Y510608D01*
X168332Y509569D01*
X168400Y508524D01*
X168400Y507476D01*
X676400Y355076D02*
X676332Y354031D01*
X676195Y352992D01*
X675990Y351965D01*
X675719Y350953D01*
X675383Y349961D01*
X674982Y348993D01*
X674518Y348054D01*
X673995Y347146D01*
X673413Y346275D01*
X672775Y345444D01*
X672084Y344657D01*
X671343Y343916D01*
X670556Y343225D01*
X669725Y342588D01*
X668854Y342006D01*
X667946Y341482D01*
X667007Y341018D01*
X666039Y340617D01*
X665047Y340281D01*
X664035Y340010D01*
X663008Y339805D01*
X661969Y339669D01*
X660924Y339600D01*
X659876Y339600D01*
X658831Y339669D01*
X657792Y339805D01*
X656765Y340010D01*
X655753Y340281D01*
X654761Y340617D01*
X653793Y341018D01*
X652854Y341482D01*
X651946Y342006D01*
X651075Y342588D01*
X650244Y343225D01*
X649457Y343916D01*
X648716Y344657D01*
X648025Y345444D01*
X647388Y346275D01*
X646806Y347146D01*
X646282Y348054D01*
X645818Y348993D01*
X645417Y349961D01*
X645081Y350953D01*
X644810Y351965D01*
X644605Y352992D01*
X644469Y354031D01*
X644400Y355076D01*
X644400Y356124D01*
X644469Y357169D01*
X644605Y358208D01*
X644810Y359235D01*
X645081Y360247D01*
X645417Y361239D01*
X645818Y362207D01*
X646282Y363146D01*
X646806Y364054D01*
X647388Y364925D01*
X648025Y365756D01*
X648716Y366543D01*
X649457Y367284D01*
X650244Y367975D01*
X651075Y368613D01*
X651946Y369195D01*
X652854Y369718D01*
X653793Y370182D01*
X654761Y370583D01*
X655753Y370919D01*
X656765Y371190D01*
X657792Y371395D01*
X658831Y371532D01*
X659876Y371600D01*
X660924Y371600D01*
X661969Y371532D01*
X663008Y371395D01*
X664035Y371190D01*
X665047Y370919D01*
X666039Y370583D01*
X667007Y370182D01*
X667946Y369718D01*
X668854Y369195D01*
X669725Y368613D01*
X670556Y367975D01*
X671343Y367284D01*
X672084Y366543D01*
X672775Y365756D01*
X673413Y364925D01*
X673995Y364054D01*
X674518Y363146D01*
X674982Y362207D01*
X675383Y361239D01*
X675719Y360247D01*
X675990Y359235D01*
X676195Y358208D01*
X676332Y357169D01*
X676400Y356124D01*
X676400Y355076D01*
X676400Y75676D02*
X676332Y74631D01*
X676195Y73592D01*
X675990Y72565D01*
X675719Y71553D01*
X675383Y70561D01*
X674982Y69593D01*
X674518Y68654D01*
X673995Y67746D01*
X673413Y66875D01*
X672775Y66044D01*
X672084Y65257D01*
X671343Y64516D01*
X670556Y63825D01*
X669725Y63188D01*
X668854Y62606D01*
X667946Y62082D01*
X667007Y61618D01*
X666039Y61217D01*
X665047Y60881D01*
X664035Y60610D01*
X663008Y60405D01*
X661969Y60269D01*
X660924Y60200D01*
X659876Y60200D01*
X658831Y60269D01*
X657792Y60405D01*
X656765Y60610D01*
X655753Y60881D01*
X654761Y61217D01*
X653793Y61618D01*
X652854Y62082D01*
X651946Y62606D01*
X651075Y63188D01*
X650244Y63825D01*
X649457Y64516D01*
X648716Y65257D01*
X648025Y66044D01*
X647388Y66875D01*
X646806Y67746D01*
X646282Y68654D01*
X645818Y69593D01*
X645417Y70561D01*
X645081Y71553D01*
X644810Y72565D01*
X644605Y73592D01*
X644469Y74631D01*
X644400Y75676D01*
X644400Y76724D01*
X644469Y77769D01*
X644605Y78808D01*
X644810Y79835D01*
X645081Y80847D01*
X645417Y81839D01*
X645818Y82807D01*
X646282Y83746D01*
X646806Y84654D01*
X647388Y85525D01*
X648025Y86356D01*
X648716Y87143D01*
X649457Y87884D01*
X650244Y88575D01*
X651075Y89213D01*
X651946Y89795D01*
X652854Y90318D01*
X653793Y90782D01*
X654761Y91183D01*
X655753Y91519D01*
X656765Y91790D01*
X657792Y91995D01*
X658831Y92132D01*
X659876Y92200D01*
X660924Y92200D01*
X661969Y92132D01*
X663008Y91995D01*
X664035Y91790D01*
X665047Y91519D01*
X666039Y91183D01*
X667007Y90782D01*
X667946Y90318D01*
X668854Y89795D01*
X669725Y89213D01*
X670556Y88575D01*
X671343Y87884D01*
X672084Y87143D01*
X672775Y86356D01*
X673413Y85525D01*
X673995Y84654D01*
X674518Y83746D01*
X674982Y82807D01*
X675383Y81839D01*
X675719Y80847D01*
X675990Y79835D01*
X676195Y78808D01*
X676332Y77769D01*
X676400Y76724D01*
X676400Y75676D01*
X561696Y270701D02*
X561620Y269832D01*
X561468Y268972D01*
X561242Y268128D01*
X560944Y267308D01*
X560575Y266516D01*
X560138Y265760D01*
X559637Y265045D01*
X559076Y264376D01*
X558458Y263758D01*
X557789Y263197D01*
X557074Y262696D01*
X556318Y262259D01*
X555526Y261890D01*
X554706Y261592D01*
X553862Y261366D01*
X553003Y261214D01*
X552133Y261138D01*
X551259Y261138D01*
X550390Y261214D01*
X549530Y261366D01*
X548686Y261592D01*
X547866Y261890D01*
X547074Y262259D01*
X546318Y262696D01*
X545603Y263197D01*
X544934Y263758D01*
X544316Y264376D01*
X543755Y265045D01*
X543254Y265760D01*
X542817Y266516D01*
X542448Y267308D01*
X542150Y268128D01*
X541924Y268972D01*
X541772Y269832D01*
X541696Y270701D01*
X541696Y271575D01*
X541772Y272445D01*
X541924Y273304D01*
X542150Y274148D01*
X542448Y274968D01*
X542817Y275760D01*
X543254Y276516D01*
X543755Y277231D01*
X544316Y277900D01*
X544934Y278518D01*
X545603Y279079D01*
X546318Y279580D01*
X547074Y280017D01*
X547866Y280386D01*
X548686Y280684D01*
X549530Y280910D01*
X550390Y281062D01*
X551259Y281138D01*
X552133Y281138D01*
X553003Y281062D01*
X553862Y280910D01*
X554706Y280684D01*
X555526Y280386D01*
X556318Y280017D01*
X557074Y279580D01*
X557789Y279079D01*
X558458Y278518D01*
X559076Y277900D01*
X559637Y277231D01*
X560138Y276516D01*
X560575Y275760D01*
X560944Y274968D01*
X561242Y274148D01*
X561468Y273304D01*
X561620Y272445D01*
X561696Y271575D01*
X561696Y270701D01*
M02*
